<?xml version="1.0" encoding="utf-8" standalone="no"?>
<!DOCTYPE svg PUBLIC "-//W3C//DTD SVG 1.1//EN"
  "http://www.w3.org/Graphics/SVG/1.1/DTD/svg11.dtd">
<svg xmlns:xlink="http://www.w3.org/1999/xlink" width="784.983005pt" height="414.543281pt" viewBox="0 0 784.983005 414.543281" xmlns="http://www.w3.org/2000/svg" version="1.1">
 <metadata>
  <rdf:RDF xmlns:dc="http://purl.org/dc/elements/1.1/" xmlns:cc="http://creativecommons.org/ns#" xmlns:rdf="http://www.w3.org/1999/02/22-rdf-syntax-ns#">
   <cc:Work>
    <dc:type rdf:resource="http://purl.org/dc/dcmitype/StillImage"/>
    <dc:date>2026-03-06T14:43:00.392077</dc:date>
    <dc:format>image/svg+xml</dc:format>
    <dc:creator>
     <cc:Agent>
      <dc:title>Matplotlib v3.9.4, https://matplotlib.org/</dc:title>
     </cc:Agent>
    </dc:creator>
   </cc:Work>
  </rdf:RDF>
 </metadata>
 <defs>
  <style type="text/css">*{stroke-linejoin: round; stroke-linecap: butt}</style>
 </defs>
 <g id="figure_1">
  <g id="patch_1">
   <path d="M 0 414.543281 
L 784.983005 414.543281 
L 784.983005 0 
L 0 0 
z
" style="fill: #ffffff"/>
  </g>
  <g id="axes_1">
   <g id="patch_2">
    <path d="M 58.275781 355.871562 
L 682.819781 355.871562 
L 682.819781 27.311562 
L 58.275781 27.311562 
z
" style="fill: #ffffff"/>
   </g>
   <g id="patch_3">
    <path d="M 58.275781 261.997277 
L 682.819781 261.997277 
L 682.819781 168.122991 
L 58.275781 168.122991 
z
" clip-path="url(#p82bc52079f)" style="fill: #e8ecf0; opacity: 0.4"/>
   </g>
   <g id="matplotlib.axis_1">
    <g id="xtick_1">
     <g id="line2d_1">
      <defs>
       <path id="mcf0c85a0e4" d="M 0 0 
L 0 5 
" style="stroke: #2c3e50"/>
      </defs>
      <g>
       <use xlink:href="#mcf0c85a0e4" x="58.275781" y="355.871562" style="fill: #2c3e50; stroke: #2c3e50"/>
      </g>
     </g>
     <g id="text_1">
      <!-- Jan -->
      <g style="fill: #2c3e50" transform="translate(49.797187 374.229844) scale(0.11 -0.11)">
       <defs>
        <path id="DejaVuSans-4a" d="M 628 4666 
L 1259 4666 
L 1259 325 
Q 1259 -519 939 -900 
Q 619 -1281 -91 -1281 
L -331 -1281 
L -331 -750 
L -134 -750 
Q 284 -750 456 -515 
Q 628 -281 628 325 
L 628 4666 
z
" transform="scale(0.015625)"/>
        <path id="DejaVuSans-61" d="M 2194 1759 
Q 1497 1759 1228 1600 
Q 959 1441 959 1056 
Q 959 750 1161 570 
Q 1363 391 1709 391 
Q 2188 391 2477 730 
Q 2766 1069 2766 1631 
L 2766 1759 
L 2194 1759 
z
M 3341 1997 
L 3341 0 
L 2766 0 
L 2766 531 
Q 2569 213 2275 61 
Q 1981 -91 1556 -91 
Q 1019 -91 701 211 
Q 384 513 384 1019 
Q 384 1609 779 1909 
Q 1175 2209 1959 2209 
L 2766 2209 
L 2766 2266 
Q 2766 2663 2505 2880 
Q 2244 3097 1772 3097 
Q 1472 3097 1187 3025 
Q 903 2953 641 2809 
L 641 3341 
Q 956 3463 1253 3523 
Q 1550 3584 1831 3584 
Q 2591 3584 2966 3190 
Q 3341 2797 3341 1997 
z
" transform="scale(0.015625)"/>
        <path id="DejaVuSans-6e" d="M 3513 2113 
L 3513 0 
L 2938 0 
L 2938 2094 
Q 2938 2591 2744 2837 
Q 2550 3084 2163 3084 
Q 1697 3084 1428 2787 
Q 1159 2491 1159 1978 
L 1159 0 
L 581 0 
L 581 3500 
L 1159 3500 
L 1159 2956 
Q 1366 3272 1645 3428 
Q 1925 3584 2291 3584 
Q 2894 3584 3203 3211 
Q 3513 2838 3513 2113 
z
" transform="scale(0.015625)"/>
       </defs>
       <use xlink:href="#DejaVuSans-4a"/>
       <use xlink:href="#DejaVuSans-61" x="29.492188"/>
       <use xlink:href="#DejaVuSans-6e" x="90.771484"/>
      </g>
     </g>
    </g>
    <g id="xtick_2">
     <g id="line2d_2">
      <g>
       <use xlink:href="#mcf0c85a0e4" x="115.052509" y="355.871562" style="fill: #2c3e50; stroke: #2c3e50"/>
      </g>
     </g>
     <g id="text_2">
      <!-- Feb -->
      <g style="fill: #2c3e50" transform="translate(105.31579 374.229844) scale(0.11 -0.11)">
       <defs>
        <path id="DejaVuSans-46" d="M 628 4666 
L 3309 4666 
L 3309 4134 
L 1259 4134 
L 1259 2759 
L 3109 2759 
L 3109 2228 
L 1259 2228 
L 1259 0 
L 628 0 
L 628 4666 
z
" transform="scale(0.015625)"/>
        <path id="DejaVuSans-65" d="M 3597 1894 
L 3597 1613 
L 953 1613 
Q 991 1019 1311 708 
Q 1631 397 2203 397 
Q 2534 397 2845 478 
Q 3156 559 3463 722 
L 3463 178 
Q 3153 47 2828 -22 
Q 2503 -91 2169 -91 
Q 1331 -91 842 396 
Q 353 884 353 1716 
Q 353 2575 817 3079 
Q 1281 3584 2069 3584 
Q 2775 3584 3186 3129 
Q 3597 2675 3597 1894 
z
M 3022 2063 
Q 3016 2534 2758 2815 
Q 2500 3097 2075 3097 
Q 1594 3097 1305 2825 
Q 1016 2553 972 2059 
L 3022 2063 
z
" transform="scale(0.015625)"/>
        <path id="DejaVuSans-62" d="M 3116 1747 
Q 3116 2381 2855 2742 
Q 2594 3103 2138 3103 
Q 1681 3103 1420 2742 
Q 1159 2381 1159 1747 
Q 1159 1113 1420 752 
Q 1681 391 2138 391 
Q 2594 391 2855 752 
Q 3116 1113 3116 1747 
z
M 1159 2969 
Q 1341 3281 1617 3432 
Q 1894 3584 2278 3584 
Q 2916 3584 3314 3078 
Q 3713 2572 3713 1747 
Q 3713 922 3314 415 
Q 2916 -91 2278 -91 
Q 1894 -91 1617 61 
Q 1341 213 1159 525 
L 1159 0 
L 581 0 
L 581 4863 
L 1159 4863 
L 1159 2969 
z
" transform="scale(0.015625)"/>
       </defs>
       <use xlink:href="#DejaVuSans-46"/>
       <use xlink:href="#DejaVuSans-65" x="52.019531"/>
       <use xlink:href="#DejaVuSans-62" x="113.542969"/>
      </g>
     </g>
    </g>
    <g id="xtick_3">
     <g id="line2d_3">
      <g>
       <use xlink:href="#mcf0c85a0e4" x="171.829236" y="355.871562" style="fill: #2c3e50; stroke: #2c3e50"/>
      </g>
     </g>
     <g id="text_3">
      <!-- Mar -->
      <g style="fill: #2c3e50" transform="translate(161.452283 374.229844) scale(0.11 -0.11)">
       <defs>
        <path id="DejaVuSans-4d" d="M 628 4666 
L 1569 4666 
L 2759 1491 
L 3956 4666 
L 4897 4666 
L 4897 0 
L 4281 0 
L 4281 4097 
L 3078 897 
L 2444 897 
L 1241 4097 
L 1241 0 
L 628 0 
L 628 4666 
z
" transform="scale(0.015625)"/>
        <path id="DejaVuSans-72" d="M 2631 2963 
Q 2534 3019 2420 3045 
Q 2306 3072 2169 3072 
Q 1681 3072 1420 2755 
Q 1159 2438 1159 1844 
L 1159 0 
L 581 0 
L 581 3500 
L 1159 3500 
L 1159 2956 
Q 1341 3275 1631 3429 
Q 1922 3584 2338 3584 
Q 2397 3584 2469 3576 
Q 2541 3569 2628 3553 
L 2631 2963 
z
" transform="scale(0.015625)"/>
       </defs>
       <use xlink:href="#DejaVuSans-4d"/>
       <use xlink:href="#DejaVuSans-61" x="86.279297"/>
       <use xlink:href="#DejaVuSans-72" x="147.558594"/>
      </g>
     </g>
    </g>
    <g id="xtick_4">
     <g id="line2d_4">
      <g>
       <use xlink:href="#mcf0c85a0e4" x="228.605963" y="355.871562" style="fill: #2c3e50; stroke: #2c3e50"/>
      </g>
     </g>
     <g id="text_4">
      <!-- Apr -->
      <g style="fill: #2c3e50" transform="translate(219.090963 374.229844) scale(0.11 -0.11)">
       <defs>
        <path id="DejaVuSans-41" d="M 2188 4044 
L 1331 1722 
L 3047 1722 
L 2188 4044 
z
M 1831 4666 
L 2547 4666 
L 4325 0 
L 3669 0 
L 3244 1197 
L 1141 1197 
L 716 0 
L 50 0 
L 1831 4666 
z
" transform="scale(0.015625)"/>
        <path id="DejaVuSans-70" d="M 1159 525 
L 1159 -1331 
L 581 -1331 
L 581 3500 
L 1159 3500 
L 1159 2969 
Q 1341 3281 1617 3432 
Q 1894 3584 2278 3584 
Q 2916 3584 3314 3078 
Q 3713 2572 3713 1747 
Q 3713 922 3314 415 
Q 2916 -91 2278 -91 
Q 1894 -91 1617 61 
Q 1341 213 1159 525 
z
M 3116 1747 
Q 3116 2381 2855 2742 
Q 2594 3103 2138 3103 
Q 1681 3103 1420 2742 
Q 1159 2381 1159 1747 
Q 1159 1113 1420 752 
Q 1681 391 2138 391 
Q 2594 391 2855 752 
Q 3116 1113 3116 1747 
z
" transform="scale(0.015625)"/>
       </defs>
       <use xlink:href="#DejaVuSans-41"/>
       <use xlink:href="#DejaVuSans-70" x="68.408203"/>
       <use xlink:href="#DejaVuSans-72" x="131.884766"/>
      </g>
     </g>
    </g>
    <g id="xtick_5">
     <g id="line2d_5">
      <g>
       <use xlink:href="#mcf0c85a0e4" x="285.38269" y="355.871562" style="fill: #2c3e50; stroke: #2c3e50"/>
      </g>
     </g>
     <g id="text_5">
      <!-- May -->
      <g style="fill: #2c3e50" transform="translate(274.01144 374.229844) scale(0.11 -0.11)">
       <defs>
        <path id="DejaVuSans-79" d="M 2059 -325 
Q 1816 -950 1584 -1140 
Q 1353 -1331 966 -1331 
L 506 -1331 
L 506 -850 
L 844 -850 
Q 1081 -850 1212 -737 
Q 1344 -625 1503 -206 
L 1606 56 
L 191 3500 
L 800 3500 
L 1894 763 
L 2988 3500 
L 3597 3500 
L 2059 -325 
z
" transform="scale(0.015625)"/>
       </defs>
       <use xlink:href="#DejaVuSans-4d"/>
       <use xlink:href="#DejaVuSans-61" x="86.279297"/>
       <use xlink:href="#DejaVuSans-79" x="147.558594"/>
      </g>
     </g>
    </g>
    <g id="xtick_6">
     <g id="line2d_6">
      <g>
       <use xlink:href="#mcf0c85a0e4" x="342.159418" y="355.871562" style="fill: #2c3e50; stroke: #2c3e50"/>
      </g>
     </g>
     <g id="text_6">
      <!-- Jun -->
      <g style="fill: #2c3e50" transform="translate(333.565668 374.229844) scale(0.11 -0.11)">
       <defs>
        <path id="DejaVuSans-75" d="M 544 1381 
L 544 3500 
L 1119 3500 
L 1119 1403 
Q 1119 906 1312 657 
Q 1506 409 1894 409 
Q 2359 409 2629 706 
Q 2900 1003 2900 1516 
L 2900 3500 
L 3475 3500 
L 3475 0 
L 2900 0 
L 2900 538 
Q 2691 219 2414 64 
Q 2138 -91 1772 -91 
Q 1169 -91 856 284 
Q 544 659 544 1381 
z
M 1991 3584 
L 1991 3584 
z
" transform="scale(0.015625)"/>
       </defs>
       <use xlink:href="#DejaVuSans-4a"/>
       <use xlink:href="#DejaVuSans-75" x="29.492188"/>
       <use xlink:href="#DejaVuSans-6e" x="92.871094"/>
      </g>
     </g>
    </g>
    <g id="xtick_7">
     <g id="line2d_7">
      <g>
       <use xlink:href="#mcf0c85a0e4" x="398.936145" y="355.871562" style="fill: #2c3e50; stroke: #2c3e50"/>
      </g>
     </g>
     <g id="text_7">
      <!-- Jul -->
      <g style="fill: #2c3e50" transform="translate(392.300051 374.229844) scale(0.11 -0.11)">
       <defs>
        <path id="DejaVuSans-6c" d="M 603 4863 
L 1178 4863 
L 1178 0 
L 603 0 
L 603 4863 
z
" transform="scale(0.015625)"/>
       </defs>
       <use xlink:href="#DejaVuSans-4a"/>
       <use xlink:href="#DejaVuSans-75" x="29.492188"/>
       <use xlink:href="#DejaVuSans-6c" x="92.871094"/>
      </g>
     </g>
    </g>
    <g id="xtick_8">
     <g id="line2d_8">
      <g>
       <use xlink:href="#mcf0c85a0e4" x="455.712872" y="355.871562" style="fill: #2c3e50; stroke: #2c3e50"/>
      </g>
     </g>
     <g id="text_8">
      <!-- Aug -->
      <g style="fill: #2c3e50" transform="translate(444.973263 374.229844) scale(0.11 -0.11)">
       <defs>
        <path id="DejaVuSans-67" d="M 2906 1791 
Q 2906 2416 2648 2759 
Q 2391 3103 1925 3103 
Q 1463 3103 1205 2759 
Q 947 2416 947 1791 
Q 947 1169 1205 825 
Q 1463 481 1925 481 
Q 2391 481 2648 825 
Q 2906 1169 2906 1791 
z
M 3481 434 
Q 3481 -459 3084 -895 
Q 2688 -1331 1869 -1331 
Q 1566 -1331 1297 -1286 
Q 1028 -1241 775 -1147 
L 775 -588 
Q 1028 -725 1275 -790 
Q 1522 -856 1778 -856 
Q 2344 -856 2625 -561 
Q 2906 -266 2906 331 
L 2906 616 
Q 2728 306 2450 153 
Q 2172 0 1784 0 
Q 1141 0 747 490 
Q 353 981 353 1791 
Q 353 2603 747 3093 
Q 1141 3584 1784 3584 
Q 2172 3584 2450 3431 
Q 2728 3278 2906 2969 
L 2906 3500 
L 3481 3500 
L 3481 434 
z
" transform="scale(0.015625)"/>
       </defs>
       <use xlink:href="#DejaVuSans-41"/>
       <use xlink:href="#DejaVuSans-75" x="68.408203"/>
       <use xlink:href="#DejaVuSans-67" x="131.787109"/>
      </g>
     </g>
    </g>
    <g id="xtick_9">
     <g id="line2d_9">
      <g>
       <use xlink:href="#mcf0c85a0e4" x="512.489599" y="355.871562" style="fill: #2c3e50; stroke: #2c3e50"/>
      </g>
     </g>
     <g id="text_9">
      <!-- Sep -->
      <g style="fill: #2c3e50" transform="translate(502.122099 374.229844) scale(0.11 -0.11)">
       <defs>
        <path id="DejaVuSans-53" d="M 3425 4513 
L 3425 3897 
Q 3066 4069 2747 4153 
Q 2428 4238 2131 4238 
Q 1616 4238 1336 4038 
Q 1056 3838 1056 3469 
Q 1056 3159 1242 3001 
Q 1428 2844 1947 2747 
L 2328 2669 
Q 3034 2534 3370 2195 
Q 3706 1856 3706 1288 
Q 3706 609 3251 259 
Q 2797 -91 1919 -91 
Q 1588 -91 1214 -16 
Q 841 59 441 206 
L 441 856 
Q 825 641 1194 531 
Q 1563 422 1919 422 
Q 2459 422 2753 634 
Q 3047 847 3047 1241 
Q 3047 1584 2836 1778 
Q 2625 1972 2144 2069 
L 1759 2144 
Q 1053 2284 737 2584 
Q 422 2884 422 3419 
Q 422 4038 858 4394 
Q 1294 4750 2059 4750 
Q 2388 4750 2728 4690 
Q 3069 4631 3425 4513 
z
" transform="scale(0.015625)"/>
       </defs>
       <use xlink:href="#DejaVuSans-53"/>
       <use xlink:href="#DejaVuSans-65" x="63.476562"/>
       <use xlink:href="#DejaVuSans-70" x="125"/>
      </g>
     </g>
    </g>
    <g id="xtick_10">
     <g id="line2d_10">
      <g>
       <use xlink:href="#mcf0c85a0e4" x="569.266327" y="355.871562" style="fill: #2c3e50; stroke: #2c3e50"/>
      </g>
     </g>
     <g id="text_10">
      <!-- Oct -->
      <g style="fill: #2c3e50" transform="translate(559.756483 374.229844) scale(0.11 -0.11)">
       <defs>
        <path id="DejaVuSans-4f" d="M 2522 4238 
Q 1834 4238 1429 3725 
Q 1025 3213 1025 2328 
Q 1025 1447 1429 934 
Q 1834 422 2522 422 
Q 3209 422 3611 934 
Q 4013 1447 4013 2328 
Q 4013 3213 3611 3725 
Q 3209 4238 2522 4238 
z
M 2522 4750 
Q 3503 4750 4090 4092 
Q 4678 3434 4678 2328 
Q 4678 1225 4090 567 
Q 3503 -91 2522 -91 
Q 1538 -91 948 565 
Q 359 1222 359 2328 
Q 359 3434 948 4092 
Q 1538 4750 2522 4750 
z
" transform="scale(0.015625)"/>
        <path id="DejaVuSans-63" d="M 3122 3366 
L 3122 2828 
Q 2878 2963 2633 3030 
Q 2388 3097 2138 3097 
Q 1578 3097 1268 2742 
Q 959 2388 959 1747 
Q 959 1106 1268 751 
Q 1578 397 2138 397 
Q 2388 397 2633 464 
Q 2878 531 3122 666 
L 3122 134 
Q 2881 22 2623 -34 
Q 2366 -91 2075 -91 
Q 1284 -91 818 406 
Q 353 903 353 1747 
Q 353 2603 823 3093 
Q 1294 3584 2113 3584 
Q 2378 3584 2631 3529 
Q 2884 3475 3122 3366 
z
" transform="scale(0.015625)"/>
        <path id="DejaVuSans-74" d="M 1172 4494 
L 1172 3500 
L 2356 3500 
L 2356 3053 
L 1172 3053 
L 1172 1153 
Q 1172 725 1289 603 
Q 1406 481 1766 481 
L 2356 481 
L 2356 0 
L 1766 0 
Q 1100 0 847 248 
Q 594 497 594 1153 
L 594 3053 
L 172 3053 
L 172 3500 
L 594 3500 
L 594 4494 
L 1172 4494 
z
" transform="scale(0.015625)"/>
       </defs>
       <use xlink:href="#DejaVuSans-4f"/>
       <use xlink:href="#DejaVuSans-63" x="78.710938"/>
       <use xlink:href="#DejaVuSans-74" x="133.691406"/>
      </g>
     </g>
    </g>
    <g id="xtick_11">
     <g id="line2d_11">
      <g>
       <use xlink:href="#mcf0c85a0e4" x="626.043054" y="355.871562" style="fill: #2c3e50; stroke: #2c3e50"/>
      </g>
     </g>
     <g id="text_11">
      <!-- Nov -->
      <g style="fill: #2c3e50" transform="translate(615.307741 374.229844) scale(0.11 -0.11)">
       <defs>
        <path id="DejaVuSans-4e" d="M 628 4666 
L 1478 4666 
L 3547 763 
L 3547 4666 
L 4159 4666 
L 4159 0 
L 3309 0 
L 1241 3903 
L 1241 0 
L 628 0 
L 628 4666 
z
" transform="scale(0.015625)"/>
        <path id="DejaVuSans-6f" d="M 1959 3097 
Q 1497 3097 1228 2736 
Q 959 2375 959 1747 
Q 959 1119 1226 758 
Q 1494 397 1959 397 
Q 2419 397 2687 759 
Q 2956 1122 2956 1747 
Q 2956 2369 2687 2733 
Q 2419 3097 1959 3097 
z
M 1959 3584 
Q 2709 3584 3137 3096 
Q 3566 2609 3566 1747 
Q 3566 888 3137 398 
Q 2709 -91 1959 -91 
Q 1206 -91 779 398 
Q 353 888 353 1747 
Q 353 2609 779 3096 
Q 1206 3584 1959 3584 
z
" transform="scale(0.015625)"/>
        <path id="DejaVuSans-76" d="M 191 3500 
L 800 3500 
L 1894 563 
L 2988 3500 
L 3597 3500 
L 2284 0 
L 1503 0 
L 191 3500 
z
" transform="scale(0.015625)"/>
       </defs>
       <use xlink:href="#DejaVuSans-4e"/>
       <use xlink:href="#DejaVuSans-6f" x="74.804688"/>
       <use xlink:href="#DejaVuSans-76" x="135.986328"/>
      </g>
     </g>
    </g>
    <g id="xtick_12">
     <g id="line2d_12">
      <g>
       <use xlink:href="#mcf0c85a0e4" x="682.819781" y="355.871562" style="fill: #2c3e50; stroke: #2c3e50"/>
      </g>
     </g>
     <g id="text_12">
      <!-- Dec -->
      <g style="fill: #2c3e50" transform="translate(672.176422 374.229844) scale(0.11 -0.11)">
       <defs>
        <path id="DejaVuSans-44" d="M 1259 4147 
L 1259 519 
L 2022 519 
Q 2988 519 3436 956 
Q 3884 1394 3884 2338 
Q 3884 3275 3436 3711 
Q 2988 4147 2022 4147 
L 1259 4147 
z
M 628 4666 
L 1925 4666 
Q 3281 4666 3915 4102 
Q 4550 3538 4550 2338 
Q 4550 1131 3912 565 
Q 3275 0 1925 0 
L 628 0 
L 628 4666 
z
" transform="scale(0.015625)"/>
       </defs>
       <use xlink:href="#DejaVuSans-44"/>
       <use xlink:href="#DejaVuSans-65" x="77.001953"/>
       <use xlink:href="#DejaVuSans-63" x="138.525391"/>
      </g>
     </g>
    </g>
    <g id="text_13">
     <!-- Month -->
     <g style="fill: #2c3e50" transform="translate(349.044344 393.635625) scale(0.12 -0.12)">
      <defs>
       <path id="DejaVuSans-Bold-4d" d="M 588 4666 
L 2119 4666 
L 3181 2169 
L 4250 4666 
L 5778 4666 
L 5778 0 
L 4641 0 
L 4641 3413 
L 3566 897 
L 2803 897 
L 1728 3413 
L 1728 0 
L 588 0 
L 588 4666 
z
" transform="scale(0.015625)"/>
       <path id="DejaVuSans-Bold-6f" d="M 2203 2784 
Q 1831 2784 1636 2517 
Q 1441 2250 1441 1747 
Q 1441 1244 1636 976 
Q 1831 709 2203 709 
Q 2569 709 2762 976 
Q 2956 1244 2956 1747 
Q 2956 2250 2762 2517 
Q 2569 2784 2203 2784 
z
M 2203 3584 
Q 3106 3584 3614 3096 
Q 4122 2609 4122 1747 
Q 4122 884 3614 396 
Q 3106 -91 2203 -91 
Q 1297 -91 786 396 
Q 275 884 275 1747 
Q 275 2609 786 3096 
Q 1297 3584 2203 3584 
z
" transform="scale(0.015625)"/>
       <path id="DejaVuSans-Bold-6e" d="M 4056 2131 
L 4056 0 
L 2931 0 
L 2931 347 
L 2931 1631 
Q 2931 2084 2911 2256 
Q 2891 2428 2841 2509 
Q 2775 2619 2662 2680 
Q 2550 2741 2406 2741 
Q 2056 2741 1856 2470 
Q 1656 2200 1656 1722 
L 1656 0 
L 538 0 
L 538 3500 
L 1656 3500 
L 1656 2988 
Q 1909 3294 2193 3439 
Q 2478 3584 2822 3584 
Q 3428 3584 3742 3212 
Q 4056 2841 4056 2131 
z
" transform="scale(0.015625)"/>
       <path id="DejaVuSans-Bold-74" d="M 1759 4494 
L 1759 3500 
L 2913 3500 
L 2913 2700 
L 1759 2700 
L 1759 1216 
Q 1759 972 1856 886 
Q 1953 800 2241 800 
L 2816 800 
L 2816 0 
L 1856 0 
Q 1194 0 917 276 
Q 641 553 641 1216 
L 641 2700 
L 84 2700 
L 84 3500 
L 641 3500 
L 641 4494 
L 1759 4494 
z
" transform="scale(0.015625)"/>
       <path id="DejaVuSans-Bold-68" d="M 4056 2131 
L 4056 0 
L 2931 0 
L 2931 347 
L 2931 1625 
Q 2931 2084 2911 2256 
Q 2891 2428 2841 2509 
Q 2775 2619 2662 2680 
Q 2550 2741 2406 2741 
Q 2056 2741 1856 2470 
Q 1656 2200 1656 1722 
L 1656 0 
L 538 0 
L 538 4863 
L 1656 4863 
L 1656 2988 
Q 1909 3294 2193 3439 
Q 2478 3584 2822 3584 
Q 3428 3584 3742 3212 
Q 4056 2841 4056 2131 
z
" transform="scale(0.015625)"/>
      </defs>
      <use xlink:href="#DejaVuSans-Bold-4d"/>
      <use xlink:href="#DejaVuSans-Bold-6f" x="99.511719"/>
      <use xlink:href="#DejaVuSans-Bold-6e" x="168.212891"/>
      <use xlink:href="#DejaVuSans-Bold-74" x="239.404297"/>
      <use xlink:href="#DejaVuSans-Bold-68" x="287.207031"/>
     </g>
    </g>
   </g>
   <g id="matplotlib.axis_2">
    <g id="ytick_1">
     <g id="line2d_13">
      <path d="M 58.275781 355.871562 
L 682.819781 355.871562 
" clip-path="url(#p82bc52079f)" style="fill: none; stroke: #b0b0b0; stroke-opacity: 0.35; stroke-width: 0.45; stroke-linecap: square"/>
     </g>
     <g id="line2d_14">
      <defs>
       <path id="m50495f2a34" d="M 0 0 
L -5 0 
" style="stroke: #2c3e50"/>
      </defs>
      <g>
       <use xlink:href="#m50495f2a34" x="58.275781" y="355.871562" style="fill: #2c3e50; stroke: #2c3e50"/>
      </g>
     </g>
     <g id="text_14">
      <!-- -1.5 -->
      <g style="fill: #2c3e50" transform="translate(26.81375 360.050703) scale(0.11 -0.11)">
       <defs>
        <path id="DejaVuSans-2d" d="M 313 2009 
L 1997 2009 
L 1997 1497 
L 313 1497 
L 313 2009 
z
" transform="scale(0.015625)"/>
        <path id="DejaVuSans-31" d="M 794 531 
L 1825 531 
L 1825 4091 
L 703 3866 
L 703 4441 
L 1819 4666 
L 2450 4666 
L 2450 531 
L 3481 531 
L 3481 0 
L 794 0 
L 794 531 
z
" transform="scale(0.015625)"/>
        <path id="DejaVuSans-2e" d="M 684 794 
L 1344 794 
L 1344 0 
L 684 0 
L 684 794 
z
" transform="scale(0.015625)"/>
        <path id="DejaVuSans-35" d="M 691 4666 
L 3169 4666 
L 3169 4134 
L 1269 4134 
L 1269 2991 
Q 1406 3038 1543 3061 
Q 1681 3084 1819 3084 
Q 2600 3084 3056 2656 
Q 3513 2228 3513 1497 
Q 3513 744 3044 326 
Q 2575 -91 1722 -91 
Q 1428 -91 1123 -41 
Q 819 9 494 109 
L 494 744 
Q 775 591 1075 516 
Q 1375 441 1709 441 
Q 2250 441 2565 725 
Q 2881 1009 2881 1497 
Q 2881 1984 2565 2268 
Q 2250 2553 1709 2553 
Q 1456 2553 1204 2497 
Q 953 2441 691 2322 
L 691 4666 
z
" transform="scale(0.015625)"/>
       </defs>
       <use xlink:href="#DejaVuSans-2d"/>
       <use xlink:href="#DejaVuSans-31" x="36.083984"/>
       <use xlink:href="#DejaVuSans-2e" x="99.707031"/>
       <use xlink:href="#DejaVuSans-35" x="131.494141"/>
      </g>
     </g>
    </g>
    <g id="ytick_2">
     <g id="line2d_15">
      <path d="M 58.275781 308.93442 
L 682.819781 308.93442 
" clip-path="url(#p82bc52079f)" style="fill: none; stroke: #b0b0b0; stroke-opacity: 0.35; stroke-width: 0.45; stroke-linecap: square"/>
     </g>
     <g id="line2d_16">
      <g>
       <use xlink:href="#m50495f2a34" x="58.275781" y="308.93442" style="fill: #2c3e50; stroke: #2c3e50"/>
      </g>
     </g>
     <g id="text_15">
      <!-- -1.0 -->
      <g style="fill: #2c3e50" transform="translate(26.81375 313.11356) scale(0.11 -0.11)">
       <defs>
        <path id="DejaVuSans-30" d="M 2034 4250 
Q 1547 4250 1301 3770 
Q 1056 3291 1056 2328 
Q 1056 1369 1301 889 
Q 1547 409 2034 409 
Q 2525 409 2770 889 
Q 3016 1369 3016 2328 
Q 3016 3291 2770 3770 
Q 2525 4250 2034 4250 
z
M 2034 4750 
Q 2819 4750 3233 4129 
Q 3647 3509 3647 2328 
Q 3647 1150 3233 529 
Q 2819 -91 2034 -91 
Q 1250 -91 836 529 
Q 422 1150 422 2328 
Q 422 3509 836 4129 
Q 1250 4750 2034 4750 
z
" transform="scale(0.015625)"/>
       </defs>
       <use xlink:href="#DejaVuSans-2d"/>
       <use xlink:href="#DejaVuSans-31" x="36.083984"/>
       <use xlink:href="#DejaVuSans-2e" x="99.707031"/>
       <use xlink:href="#DejaVuSans-30" x="131.494141"/>
      </g>
     </g>
    </g>
    <g id="ytick_3">
     <g id="line2d_17">
      <path d="M 58.275781 261.997277 
L 682.819781 261.997277 
" clip-path="url(#p82bc52079f)" style="fill: none; stroke: #b0b0b0; stroke-opacity: 0.35; stroke-width: 0.45; stroke-linecap: square"/>
     </g>
     <g id="line2d_18">
      <g>
       <use xlink:href="#m50495f2a34" x="58.275781" y="261.997277" style="fill: #2c3e50; stroke: #2c3e50"/>
      </g>
     </g>
     <g id="text_16">
      <!-- -0.5 -->
      <g style="fill: #2c3e50" transform="translate(26.81375 266.176417) scale(0.11 -0.11)">
       <use xlink:href="#DejaVuSans-2d"/>
       <use xlink:href="#DejaVuSans-30" x="36.083984"/>
       <use xlink:href="#DejaVuSans-2e" x="99.707031"/>
       <use xlink:href="#DejaVuSans-35" x="131.494141"/>
      </g>
     </g>
    </g>
    <g id="ytick_4">
     <g id="line2d_19">
      <path d="M 58.275781 215.060134 
L 682.819781 215.060134 
" clip-path="url(#p82bc52079f)" style="fill: none; stroke: #b0b0b0; stroke-opacity: 0.35; stroke-width: 0.45; stroke-linecap: square"/>
     </g>
     <g id="line2d_20">
      <g>
       <use xlink:href="#m50495f2a34" x="58.275781" y="215.060134" style="fill: #2c3e50; stroke: #2c3e50"/>
      </g>
     </g>
     <g id="text_17">
      <!-- 0.0 -->
      <g style="fill: #2c3e50" transform="translate(30.782344 219.239275) scale(0.11 -0.11)">
       <use xlink:href="#DejaVuSans-30"/>
       <use xlink:href="#DejaVuSans-2e" x="63.623047"/>
       <use xlink:href="#DejaVuSans-30" x="95.410156"/>
      </g>
     </g>
    </g>
    <g id="ytick_5">
     <g id="line2d_21">
      <path d="M 58.275781 168.122991 
L 682.819781 168.122991 
" clip-path="url(#p82bc52079f)" style="fill: none; stroke: #b0b0b0; stroke-opacity: 0.35; stroke-width: 0.45; stroke-linecap: square"/>
     </g>
     <g id="line2d_22">
      <g>
       <use xlink:href="#m50495f2a34" x="58.275781" y="168.122991" style="fill: #2c3e50; stroke: #2c3e50"/>
      </g>
     </g>
     <g id="text_18">
      <!-- 0.5 -->
      <g style="fill: #2c3e50" transform="translate(30.782344 172.302132) scale(0.11 -0.11)">
       <use xlink:href="#DejaVuSans-30"/>
       <use xlink:href="#DejaVuSans-2e" x="63.623047"/>
       <use xlink:href="#DejaVuSans-35" x="95.410156"/>
      </g>
     </g>
    </g>
    <g id="ytick_6">
     <g id="line2d_23">
      <path d="M 58.275781 121.185848 
L 682.819781 121.185848 
" clip-path="url(#p82bc52079f)" style="fill: none; stroke: #b0b0b0; stroke-opacity: 0.35; stroke-width: 0.45; stroke-linecap: square"/>
     </g>
     <g id="line2d_24">
      <g>
       <use xlink:href="#m50495f2a34" x="58.275781" y="121.185848" style="fill: #2c3e50; stroke: #2c3e50"/>
      </g>
     </g>
     <g id="text_19">
      <!-- 1.0 -->
      <g style="fill: #2c3e50" transform="translate(30.782344 125.364989) scale(0.11 -0.11)">
       <use xlink:href="#DejaVuSans-31"/>
       <use xlink:href="#DejaVuSans-2e" x="63.623047"/>
       <use xlink:href="#DejaVuSans-30" x="95.410156"/>
      </g>
     </g>
    </g>
    <g id="ytick_7">
     <g id="line2d_25">
      <path d="M 58.275781 74.248705 
L 682.819781 74.248705 
" clip-path="url(#p82bc52079f)" style="fill: none; stroke: #b0b0b0; stroke-opacity: 0.35; stroke-width: 0.45; stroke-linecap: square"/>
     </g>
     <g id="line2d_26">
      <g>
       <use xlink:href="#m50495f2a34" x="58.275781" y="74.248705" style="fill: #2c3e50; stroke: #2c3e50"/>
      </g>
     </g>
     <g id="text_20">
      <!-- 1.5 -->
      <g style="fill: #2c3e50" transform="translate(30.782344 78.427846) scale(0.11 -0.11)">
       <use xlink:href="#DejaVuSans-31"/>
       <use xlink:href="#DejaVuSans-2e" x="63.623047"/>
       <use xlink:href="#DejaVuSans-35" x="95.410156"/>
      </g>
     </g>
    </g>
    <g id="ytick_8">
     <g id="line2d_27">
      <path d="M 58.275781 27.311563 
L 682.819781 27.311563 
" clip-path="url(#p82bc52079f)" style="fill: none; stroke: #b0b0b0; stroke-opacity: 0.35; stroke-width: 0.45; stroke-linecap: square"/>
     </g>
     <g id="line2d_28">
      <g>
       <use xlink:href="#m50495f2a34" x="58.275781" y="27.311563" style="fill: #2c3e50; stroke: #2c3e50"/>
      </g>
     </g>
     <g id="text_21">
      <!-- 2.0 -->
      <g style="fill: #2c3e50" transform="translate(30.782344 31.490703) scale(0.11 -0.11)">
       <defs>
        <path id="DejaVuSans-32" d="M 1228 531 
L 3431 531 
L 3431 0 
L 469 0 
L 469 531 
Q 828 903 1448 1529 
Q 2069 2156 2228 2338 
Q 2531 2678 2651 2914 
Q 2772 3150 2772 3378 
Q 2772 3750 2511 3984 
Q 2250 4219 1831 4219 
Q 1534 4219 1204 4116 
Q 875 4013 500 3803 
L 500 4441 
Q 881 4594 1212 4672 
Q 1544 4750 1819 4750 
Q 2544 4750 2975 4387 
Q 3406 4025 3406 3419 
Q 3406 3131 3298 2873 
Q 3191 2616 2906 2266 
Q 2828 2175 2409 1742 
Q 1991 1309 1228 531 
z
" transform="scale(0.015625)"/>
       </defs>
       <use xlink:href="#DejaVuSans-32"/>
       <use xlink:href="#DejaVuSans-2e" x="63.623047"/>
       <use xlink:href="#DejaVuSans-30" x="95.410156"/>
      </g>
     </g>
    </g>
    <g id="text_22">
     <!-- Niño 4 SSTA (°C) -->
     <g style="fill: #2c3e50" transform="translate(16.318125 247.035312) rotate(-90) scale(0.12 -0.12)">
      <defs>
       <path id="DejaVuSans-Bold-4e" d="M 588 4666 
L 1931 4666 
L 3628 1466 
L 3628 4666 
L 4769 4666 
L 4769 0 
L 3425 0 
L 1728 3200 
L 1728 0 
L 588 0 
L 588 4666 
z
" transform="scale(0.015625)"/>
       <path id="DejaVuSans-Bold-69" d="M 538 3500 
L 1656 3500 
L 1656 0 
L 538 0 
L 538 3500 
z
M 538 4863 
L 1656 4863 
L 1656 3950 
L 538 3950 
L 538 4863 
z
" transform="scale(0.015625)"/>
       <path id="DejaVuSans-Bold-f1" d="M 4056 2131 
L 4056 0 
L 2931 0 
L 2931 347 
L 2931 1631 
Q 2931 2084 2911 2256 
Q 2891 2428 2841 2509 
Q 2775 2619 2662 2680 
Q 2550 2741 2406 2741 
Q 2056 2741 1856 2470 
Q 1656 2200 1656 1722 
L 1656 0 
L 538 0 
L 538 3500 
L 1656 3500 
L 1656 2988 
Q 1909 3294 2193 3439 
Q 2478 3584 2822 3584 
Q 3428 3584 3742 3212 
Q 4056 2841 4056 2131 
z
M 2366 4263 
L 2194 4378 
Q 2182 4384 2163 4397 
Q 2016 4494 1938 4494 
Q 1826 4494 1766 4397 
Q 1707 4300 1707 4116 
L 1707 4091 
L 1273 4091 
Q 1273 4516 1433 4747 
Q 1594 4978 1885 4978 
Q 1998 4978 2112 4936 
Q 2226 4894 2354 4800 
L 2544 4666 
Q 2613 4619 2671 4594 
Q 2729 4569 2776 4569 
Q 2888 4569 2950 4669 
Q 3013 4769 3013 4947 
L 3013 4972 
L 3448 4972 
Q 3448 4547 3287 4315 
Q 3126 4084 2835 4084 
Q 2723 4084 2618 4121 
Q 2513 4159 2366 4263 
z
" transform="scale(0.015625)"/>
       <path id="DejaVuSans-Bold-20" transform="scale(0.015625)"/>
       <path id="DejaVuSans-Bold-34" d="M 2356 3675 
L 1038 1722 
L 2356 1722 
L 2356 3675 
z
M 2156 4666 
L 3494 4666 
L 3494 1722 
L 4159 1722 
L 4159 850 
L 3494 850 
L 3494 0 
L 2356 0 
L 2356 850 
L 288 850 
L 288 1881 
L 2156 4666 
z
" transform="scale(0.015625)"/>
       <path id="DejaVuSans-Bold-53" d="M 3834 4519 
L 3834 3531 
Q 3450 3703 3084 3790 
Q 2719 3878 2394 3878 
Q 1963 3878 1756 3759 
Q 1550 3641 1550 3391 
Q 1550 3203 1689 3098 
Q 1828 2994 2194 2919 
L 2706 2816 
Q 3484 2659 3812 2340 
Q 4141 2022 4141 1434 
Q 4141 663 3683 286 
Q 3225 -91 2284 -91 
Q 1841 -91 1394 -6 
Q 947 78 500 244 
L 500 1259 
Q 947 1022 1364 901 
Q 1781 781 2169 781 
Q 2563 781 2772 912 
Q 2981 1044 2981 1288 
Q 2981 1506 2839 1625 
Q 2697 1744 2272 1838 
L 1806 1941 
Q 1106 2091 782 2419 
Q 459 2747 459 3303 
Q 459 4000 909 4375 
Q 1359 4750 2203 4750 
Q 2588 4750 2994 4692 
Q 3400 4634 3834 4519 
z
" transform="scale(0.015625)"/>
       <path id="DejaVuSans-Bold-54" d="M 31 4666 
L 4331 4666 
L 4331 3756 
L 2784 3756 
L 2784 0 
L 1581 0 
L 1581 3756 
L 31 3756 
L 31 4666 
z
" transform="scale(0.015625)"/>
       <path id="DejaVuSans-Bold-41" d="M 3419 850 
L 1538 850 
L 1241 0 
L 31 0 
L 1759 4666 
L 3194 4666 
L 4922 0 
L 3713 0 
L 3419 850 
z
M 1838 1716 
L 3116 1716 
L 2478 3572 
L 1838 1716 
z
" transform="scale(0.015625)"/>
       <path id="DejaVuSans-Bold-28" d="M 2413 -844 
L 1484 -844 
Q 1006 -72 778 623 
Q 550 1319 550 2003 
Q 550 2688 779 3389 
Q 1009 4091 1484 4856 
L 2413 4856 
Q 2013 4116 1813 3408 
Q 1613 2700 1613 2009 
Q 1613 1319 1811 609 
Q 2009 -100 2413 -844 
z
" transform="scale(0.015625)"/>
       <path id="DejaVuSans-Bold-b0" d="M 1600 4288 
Q 1375 4288 1219 4131 
Q 1063 3975 1063 3750 
Q 1063 3525 1217 3372 
Q 1372 3219 1600 3219 
Q 1825 3219 1981 3373 
Q 2138 3528 2138 3750 
Q 2138 3975 1980 4131 
Q 1822 4288 1600 4288 
z
M 1600 4794 
Q 1806 4794 1997 4714 
Q 2188 4634 2338 4488 
Q 2484 4338 2561 4150 
Q 2638 3963 2638 3750 
Q 2638 3541 2561 3352 
Q 2484 3163 2344 3022 
Q 2194 2872 2000 2792 
Q 1806 2713 1594 2713 
Q 1153 2713 854 3011 
Q 556 3309 556 3750 
Q 556 4191 857 4492 
Q 1159 4794 1600 4794 
z
" transform="scale(0.015625)"/>
       <path id="DejaVuSans-Bold-43" d="M 4288 256 
Q 3956 84 3597 -3 
Q 3238 -91 2847 -91 
Q 1681 -91 1000 561 
Q 319 1213 319 2328 
Q 319 3447 1000 4098 
Q 1681 4750 2847 4750 
Q 3238 4750 3597 4662 
Q 3956 4575 4288 4403 
L 4288 3438 
Q 3953 3666 3628 3772 
Q 3303 3878 2944 3878 
Q 2300 3878 1931 3465 
Q 1563 3053 1563 2328 
Q 1563 1606 1931 1193 
Q 2300 781 2944 781 
Q 3303 781 3628 887 
Q 3953 994 4288 1222 
L 4288 256 
z
" transform="scale(0.015625)"/>
       <path id="DejaVuSans-Bold-29" d="M 513 -844 
Q 913 -100 1113 609 
Q 1313 1319 1313 2009 
Q 1313 2700 1113 3408 
Q 913 4116 513 4856 
L 1441 4856 
Q 1916 4091 2145 3389 
Q 2375 2688 2375 2003 
Q 2375 1319 2147 623 
Q 1919 -72 1441 -844 
L 513 -844 
z
" transform="scale(0.015625)"/>
      </defs>
      <use xlink:href="#DejaVuSans-Bold-4e"/>
      <use xlink:href="#DejaVuSans-Bold-69" x="83.691406"/>
      <use xlink:href="#DejaVuSans-Bold-f1" x="117.96875"/>
      <use xlink:href="#DejaVuSans-Bold-6f" x="189.160156"/>
      <use xlink:href="#DejaVuSans-Bold-20" x="257.861328"/>
      <use xlink:href="#DejaVuSans-Bold-34" x="292.675781"/>
      <use xlink:href="#DejaVuSans-Bold-20" x="362.255859"/>
      <use xlink:href="#DejaVuSans-Bold-53" x="397.070312"/>
      <use xlink:href="#DejaVuSans-Bold-53" x="464.591797"/>
      <use xlink:href="#DejaVuSans-Bold-54" x="536.613281"/>
      <use xlink:href="#DejaVuSans-Bold-41" x="597.076172"/>
      <use xlink:href="#DejaVuSans-Bold-20" x="674.46875"/>
      <use xlink:href="#DejaVuSans-Bold-28" x="709.283203"/>
      <use xlink:href="#DejaVuSans-Bold-b0" x="754.986328"/>
      <use xlink:href="#DejaVuSans-Bold-43" x="804.986328"/>
      <use xlink:href="#DejaVuSans-Bold-29" x="878.375"/>
     </g>
    </g>
   </g>
   <g id="line2d_29">
    <path d="M 58.275781 215.060134 
L 682.819781 215.060134 
" clip-path="url(#p82bc52079f)" style="fill: none; stroke-dasharray: 3.33,1.44; stroke-dashoffset: 0; stroke: #808080; stroke-opacity: 0.8; stroke-width: 0.9"/>
   </g>
   <g id="line2d_30">
    <path d="M 58.275781 168.122991 
L 682.819781 168.122991 
" clip-path="url(#p82bc52079f)" style="fill: none; stroke-dasharray: 1.2,1.98; stroke-dashoffset: 0; stroke: #c0392b; stroke-opacity: 0.9; stroke-width: 1.2"/>
   </g>
   <g id="line2d_31">
    <path d="M 58.275781 261.997277 
L 682.819781 261.997277 
" clip-path="url(#p82bc52079f)" style="fill: none; stroke-dasharray: 1.2,1.98; stroke-dashoffset: 0; stroke: #2980b9; stroke-opacity: 0.9; stroke-width: 1.2"/>
   </g>
   <g id="line2d_32">
    <path d="M 58.275781 243.22242 
L 70.253337 224.447562 
L 82.230894 233.834991 
L 94.20845 205.672705 
L 106.186006 196.285277 
L 118.163562 215.060134 
L 130.141118 196.285277 
L 142.118674 196.285277 
L 154.096231 205.672705 
L 166.073787 243.22242 
L 178.051343 224.447562 
L 190.028899 205.672705 
L 202.006455 158.735563 
L 213.984011 158.735563 
L 225.961568 168.122991 
L 237.939124 177.51042 
L 249.91668 158.735563 
L 261.894236 168.122991 
L 273.871792 158.735563 
L 285.849348 186.897848 
L 297.826905 168.122991 
L 309.804461 177.51042 
L 321.782017 186.897848 
L 333.759573 205.672705 
L 345.737129 205.672705 
L 357.714685 186.897848 
L 369.692242 205.672705 
L 381.669798 168.122991 
L 393.647354 177.51042 
L 405.62491 158.735563 
L 417.602466 177.51042 
L 429.580022 177.51042 
L 441.557579 186.897848 
L 453.535135 177.51042 
L 465.512691 177.51042 
L 477.490247 158.735563 
L 489.467803 158.735563 
L 501.445359 149.348134 
L 513.422915 149.348134 
L 525.400472 177.51042 
L 537.378028 196.285277 
L 549.355584 168.122991 
L 561.33314 186.897848 
L 573.310696 196.285277 
L 585.288252 177.51042 
L 597.265809 149.348134 
L 609.243365 130.573277 
L 621.220921 149.348134 
L 633.198477 158.735563 
L 645.176033 196.285277 
L 657.153589 168.122991 
L 669.131146 168.122991 
L 681.108702 168.122991 
" clip-path="url(#p82bc52079f)" style="fill: none; stroke-dasharray: 5.55,2.4; stroke-dashoffset: 0; stroke: #440154; stroke-opacity: 0.8; stroke-width: 1.5"/>
   </g>
   <g id="line2d_33">
    <path d="M 59.986861 196.285277 
L 71.964417 177.51042 
L 83.941973 149.348134 
L 95.919529 177.51042 
L 107.897085 186.897848 
L 119.874642 168.122991 
L 131.852198 177.51042 
L 143.829754 205.672705 
L 155.80731 186.897848 
L 167.784866 215.060134 
L 179.762422 224.447562 
L 191.739979 196.285277 
L 203.717535 205.672705 
L 215.695091 186.897848 
L 227.672647 168.122991 
L 239.650203 186.897848 
L 251.627759 177.51042 
L 263.605315 168.122991 
L 275.582872 186.897848 
L 287.560428 177.51042 
L 299.537984 149.348134 
L 311.51554 149.348134 
L 323.493096 149.348134 
L 335.470652 158.735563 
L 347.448209 186.897848 
L 359.425765 177.51042 
L 371.403321 186.897848 
L 383.380877 158.735563 
L 395.358433 158.735563 
L 407.335989 177.51042 
L 419.313546 158.735563 
L 431.291102 149.348134 
L 443.268658 168.122991 
L 455.246214 177.51042 
L 467.22377 158.735563 
L 479.201326 158.735563 
L 491.178883 149.348134 
L 503.156439 139.960705 
L 515.133995 168.122991 
L 527.111551 186.897848 
L 539.089107 168.122991 
L 551.066663 168.122991 
L 563.04422 139.960705 
L 575.021776 121.185848 
L 586.999332 130.573277 
L 598.976888 111.79842 
L 610.954444 130.573277 
L 622.932 149.348134 
L 634.909557 139.960705 
L 646.887113 139.960705 
L 658.864669 130.573277 
L 670.842225 130.573277 
" clip-path="url(#p82bc52079f)" style="fill: none; stroke-dasharray: 5.55,2.4; stroke-dashoffset: 0; stroke: #443983; stroke-opacity: 0.8; stroke-width: 1.5"/>
   </g>
   <g id="line2d_34">
    <path d="M 63.40902 252.609848 
L 75.386576 261.997277 
L 87.364132 271.384705 
L 99.341688 271.384705 
L 111.319244 299.546991 
L 123.2968 308.93442 
L 135.274357 290.159562 
L 147.251913 271.384705 
L 159.229469 271.384705 
L 171.207025 271.384705 
L 183.184581 261.997277 
L 195.162137 261.997277 
L 207.139694 243.22242 
L 219.11725 243.22242 
L 231.094806 243.22242 
L 243.072362 261.997277 
L 255.049918 243.22242 
L 267.027474 252.609848 
L 279.005031 233.834991 
L 290.982587 215.060134 
L 302.960143 224.447562 
L 314.937699 205.672705 
L 326.915255 205.672705 
L 338.892811 196.285277 
L 350.870368 186.897848 
L 362.847924 224.447562 
L 374.82548 224.447562 
L 386.803036 205.672705 
L 398.780592 196.285277 
L 410.758148 177.51042 
L 422.735705 186.897848 
L 434.713261 196.285277 
L 446.690817 177.51042 
L 458.668373 158.735563 
L 470.645929 158.735563 
L 482.623485 149.348134 
L 494.601042 149.348134 
L 506.578598 139.960705 
L 518.556154 158.735563 
L 530.53371 168.122991 
L 542.511266 149.348134 
L 554.488822 158.735563 
L 566.466379 139.960705 
L 578.443935 149.348134 
L 590.421491 139.960705 
L 602.399047 121.185848 
L 614.376603 121.185848 
L 626.354159 121.185848 
L 638.331715 130.573277 
L 650.309272 130.573277 
L 662.286828 130.573277 
L 674.264384 121.185848 
" clip-path="url(#p82bc52079f)" style="fill: none; stroke-dasharray: 5.55,2.4; stroke-dashoffset: 0; stroke: #31688e; stroke-opacity: 0.8; stroke-width: 1.5"/>
   </g>
   <g id="line2d_35">
    <path d="M 68.542258 299.546991 
L 80.519814 299.546991 
L 92.49737 290.159562 
L 104.474926 290.159562 
L 116.452483 290.159562 
L 128.430039 299.546991 
L 140.407595 280.772134 
L 152.385151 261.997277 
L 164.362707 271.384705 
L 176.340263 280.772134 
L 188.31782 280.772134 
L 200.295376 252.609848 
L 212.272932 243.22242 
L 224.250488 224.447562 
L 236.228044 243.22242 
L 248.2056 243.22242 
L 260.183157 224.447562 
L 272.160713 252.609848 
L 284.138269 224.447562 
L 296.115825 186.897848 
L 308.093381 186.897848 
L 320.070937 224.447562 
L 332.048494 224.447562 
L 344.02605 186.897848 
L 356.003606 186.897848 
L 367.981162 186.897848 
L 379.958718 186.897848 
L 391.936274 196.285277 
L 403.913831 186.897848 
L 415.891387 186.897848 
L 427.868943 186.897848 
L 439.846499 168.122991 
L 451.824055 168.122991 
L 463.801611 158.735563 
L 475.779168 168.122991 
L 487.756724 177.51042 
L 499.73428 177.51042 
L 511.711836 177.51042 
L 523.689392 177.51042 
L 535.666948 158.735563 
L 547.644505 139.960705 
L 559.622061 121.185848 
L 571.599617 102.410991 
L 583.577173 93.023563 
L 595.554729 111.79842 
L 607.532285 93.023563 
L 619.509842 102.410991 
L 631.487398 111.79842 
L 643.464954 111.79842 
L 655.44251 102.410991 
L 667.420066 93.023563 
L 679.397622 93.023563 
" clip-path="url(#p82bc52079f)" style="fill: none; stroke-dasharray: 5.55,2.4; stroke-dashoffset: 0; stroke: #21918c; stroke-opacity: 0.8; stroke-width: 1.5"/>
   </g>
   <g id="line2d_36">
    <path d="M 58.275781 252.609848 
L 70.253337 252.609848 
L 82.230894 252.609848 
L 94.20845 233.834991 
L 106.186006 243.22242 
L 118.163562 252.609848 
L 130.141118 215.060134 
L 142.118674 205.672705 
L 154.096231 271.384705 
L 166.073787 261.997277 
L 178.051343 215.060134 
L 190.028899 196.285277 
L 202.006455 177.51042 
L 213.984011 168.122991 
L 225.961568 186.897848 
L 237.939124 186.897848 
L 249.91668 186.897848 
L 261.894236 177.51042 
L 273.871792 158.735563 
L 285.849348 177.51042 
L 297.826905 158.735563 
L 309.804461 177.51042 
L 321.782017 168.122991 
L 333.759573 177.51042 
L 345.737129 205.672705 
L 357.714685 224.447562 
L 369.692242 224.447562 
L 381.669798 215.060134 
L 393.647354 205.672705 
L 405.62491 224.447562 
L 417.602466 186.897848 
L 429.580022 177.51042 
L 441.557579 196.285277 
L 453.535135 196.285277 
L 465.512691 186.897848 
L 477.490247 177.51042 
L 489.467803 149.348134 
L 501.445359 149.348134 
L 513.422915 168.122991 
L 525.400472 186.897848 
L 537.378028 177.51042 
L 549.355584 168.122991 
L 561.33314 168.122991 
L 573.310696 149.348134 
L 585.288252 139.960705 
L 597.265809 139.960705 
L 609.243365 139.960705 
L 621.220921 149.348134 
L 633.198477 149.348134 
L 645.176033 149.348134 
L 657.153589 139.960705 
L 669.131146 139.960705 
L 681.108702 158.735563 
" clip-path="url(#p82bc52079f)" style="fill: none; stroke-dasharray: 5.55,2.4; stroke-dashoffset: 0; stroke: #35b779; stroke-opacity: 0.8; stroke-width: 1.5"/>
   </g>
   <g id="line2d_37">
    <path d="M 61.69794 224.447562 
L 73.675496 215.060134 
L 85.653052 233.834991 
L 97.630609 243.22242 
L 109.608165 252.609848 
L 121.585721 243.22242 
L 133.563277 243.22242 
L 145.540833 243.22242 
L 157.518389 243.22242 
L 169.495946 233.834991 
L 181.473502 233.834991 
L 193.451058 233.834991 
L 205.428614 233.834991 
L 217.40617 215.060134 
L 229.383726 215.060134 
L 241.361283 205.672705 
L 253.338839 215.060134 
L 265.316395 205.672705 
L 277.293951 196.285277 
L 289.271507 196.285277 
L 301.249063 205.672705 
L 313.22662 215.060134 
L 325.204176 205.672705 
L 337.181732 196.285277 
L 349.159288 186.897848 
L 361.136844 177.51042 
L 373.1144 186.897848 
L 385.091957 196.285277 
L 397.069513 196.285277 
L 409.047069 196.285277 
L 421.024625 177.51042 
L 433.002181 177.51042 
L 444.979737 158.735563 
L 456.957294 168.122991 
L 468.93485 177.51042 
L 480.912406 177.51042 
L 492.889962 168.122991 
L 504.867518 177.51042 
L 516.845074 158.735563 
L 528.822631 130.573277 
L 540.800187 121.185848 
L 552.777743 139.960705 
L 564.755299 130.573277 
L 576.732855 130.573277 
L 588.710411 139.960705 
L 600.687968 139.960705 
L 612.665524 139.960705 
L 624.64308 139.960705 
L 636.620636 121.185848 
L 648.598192 121.185848 
L 660.575748 121.185848 
L 672.553305 121.185848 
" clip-path="url(#p82bc52079f)" style="fill: none; stroke-dasharray: 5.55,2.4; stroke-dashoffset: 0; stroke: #90d743; stroke-opacity: 0.8; stroke-width: 1.5"/>
   </g>
   <g id="line2d_38">
    <path d="M 63.40902 280.772134 
L 75.386576 271.384705 
L 87.364132 271.384705 
L 99.341688 271.384705 
L 111.319244 261.997277 
L 123.2968 271.384705 
L 135.274357 271.384705 
L 147.251913 261.997277 
L 159.229469 252.609848 
L 171.207025 233.834991 
L 183.184581 224.447562 
L 195.162137 224.447562 
L 207.139694 205.672705 
L 219.11725 186.897848 
L 231.094806 196.285277 
L 243.072362 186.897848 
L 255.049918 177.51042 
L 267.027474 186.897848 
L 279.005031 196.285277 
L 290.982587 186.897848 
L 302.960143 177.51042 
L 314.937699 158.735563 
L 326.915255 149.348134 
L 338.892811 158.735563 
L 350.870368 149.348134 
L 362.847924 158.735563 
L 374.82548 149.348134 
L 386.803036 149.348134 
L 398.780592 139.960705 
L 410.758148 139.960705 
L 422.735705 139.960705 
L 434.713261 130.573277 
L 446.690817 130.573277 
L 458.668373 111.79842 
L 470.645929 111.79842 
L 482.623485 111.79842 
L 494.601042 111.79842 
L 506.578598 102.410991 
L 518.556154 111.79842 
L 530.53371 102.410991 
L 542.511266 93.023563 
L 554.488822 93.023563 
L 566.466379 93.023563 
L 578.443935 83.636134 
L 590.421491 93.023563 
L 602.399047 74.248705 
L 614.376603 74.248705 
L 626.354159 55.473848 
L 638.331715 83.636134 
L 650.309272 83.636134 
L 662.286828 83.636134 
L 674.264384 83.636134 
" clip-path="url(#p82bc52079f)" style="fill: none; stroke-dasharray: 5.55,2.4; stroke-dashoffset: 0; stroke: #fde725; stroke-opacity: 0.8; stroke-width: 1.5"/>
   </g>
   <g id="line2d_39">
    <path d="M 68.542258 233.834991 
L 80.519814 233.834991 
L 92.49737 205.672705 
L 104.474926 205.672705 
L 116.452483 215.060134 
L 128.430039 196.285277 
L 140.407595 186.897848 
L 152.385151 186.897848 
" clip-path="url(#p82bc52079f)" style="fill: none; stroke: #000000; stroke-width: 2.5; stroke-linecap: round"/>
   </g>
   <g id="patch_4">
    <path d="M 58.275781 355.871562 
L 58.275781 27.311563 
" style="fill: none; stroke: #4a5568; stroke-width: 0.8; stroke-linejoin: miter; stroke-linecap: square"/>
   </g>
   <g id="patch_5">
    <path d="M 682.819781 355.871562 
L 682.819781 27.311563 
" style="fill: none; stroke: #4a5568; stroke-width: 0.8; stroke-linejoin: miter; stroke-linecap: square"/>
   </g>
   <g id="patch_6">
    <path d="M 58.275781 355.871562 
L 682.819781 355.871562 
" style="fill: none; stroke: #4a5568; stroke-width: 0.8; stroke-linejoin: miter; stroke-linecap: square"/>
   </g>
   <g id="patch_7">
    <path d="M 58.275781 27.311562 
L 682.819781 27.311562 
" style="fill: none; stroke: #4a5568; stroke-width: 0.8; stroke-linejoin: miter; stroke-linecap: square"/>
   </g>
   <g id="text_23">
    <!--  El Niño (≥0.5°C) -->
    <g style="fill: #c0392b; opacity: 0.9" transform="translate(695.310661 170.606429) scale(0.09 -0.09)">
     <defs>
      <path id="DejaVuSans-20" transform="scale(0.015625)"/>
      <path id="DejaVuSans-45" d="M 628 4666 
L 3578 4666 
L 3578 4134 
L 1259 4134 
L 1259 2753 
L 3481 2753 
L 3481 2222 
L 1259 2222 
L 1259 531 
L 3634 531 
L 3634 0 
L 628 0 
L 628 4666 
z
" transform="scale(0.015625)"/>
      <path id="DejaVuSans-69" d="M 603 3500 
L 1178 3500 
L 1178 0 
L 603 0 
L 603 3500 
z
M 603 4863 
L 1178 4863 
L 1178 4134 
L 603 4134 
L 603 4863 
z
" transform="scale(0.015625)"/>
      <path id="DejaVuSans-f1" d="M 3513 2113 
L 3513 0 
L 2938 0 
L 2938 2094 
Q 2938 2591 2744 2837 
Q 2550 3084 2163 3084 
Q 1697 3084 1428 2787 
Q 1159 2491 1159 1978 
L 1159 0 
L 581 0 
L 581 3500 
L 1159 3500 
L 1159 2956 
Q 1366 3272 1645 3428 
Q 1925 3584 2291 3584 
Q 2894 3584 3203 3211 
Q 3513 2838 3513 2113 
z
M 2060 4281 
L 1881 4453 
Q 1813 4516 1761 4545 
Q 1710 4575 1669 4575 
Q 1550 4575 1494 4461 
Q 1438 4347 1431 4091 
L 1041 4091 
Q 1047 4513 1206 4742 
Q 1366 4972 1650 4972 
Q 1769 4972 1869 4928 
Q 1969 4884 2085 4781 
L 2263 4609 
Q 2331 4547 2383 4517 
Q 2435 4488 2475 4488 
Q 2594 4488 2650 4602 
Q 2706 4716 2713 4972 
L 3103 4972 
Q 3097 4550 2937 4320 
Q 2778 4091 2494 4091 
Q 2375 4091 2275 4134 
Q 2175 4178 2060 4281 
z
" transform="scale(0.015625)"/>
      <path id="DejaVuSans-28" d="M 1984 4856 
Q 1566 4138 1362 3434 
Q 1159 2731 1159 2009 
Q 1159 1288 1364 580 
Q 1569 -128 1984 -844 
L 1484 -844 
Q 1016 -109 783 600 
Q 550 1309 550 2009 
Q 550 2706 781 3412 
Q 1013 4119 1484 4856 
L 1984 4856 
z
" transform="scale(0.015625)"/>
      <path id="DejaVuSans-2265" d="M 678 3175 
L 678 3725 
L 4684 2578 
L 4684 2047 
L 678 897 
L 678 1453 
L 3681 2309 
L 678 3175 
z
M 4684 531 
L 4684 0 
L 678 0 
L 678 531 
L 4684 531 
z
" transform="scale(0.015625)"/>
      <path id="DejaVuSans-b0" d="M 1600 4347 
Q 1350 4347 1178 4173 
Q 1006 4000 1006 3750 
Q 1006 3503 1178 3333 
Q 1350 3163 1600 3163 
Q 1850 3163 2022 3333 
Q 2194 3503 2194 3750 
Q 2194 3997 2020 4172 
Q 1847 4347 1600 4347 
z
M 1600 4750 
Q 1800 4750 1984 4673 
Q 2169 4597 2303 4453 
Q 2447 4313 2519 4134 
Q 2591 3956 2591 3750 
Q 2591 3338 2302 3052 
Q 2013 2766 1594 2766 
Q 1172 2766 890 3047 
Q 609 3328 609 3750 
Q 609 4169 896 4459 
Q 1184 4750 1600 4750 
z
" transform="scale(0.015625)"/>
      <path id="DejaVuSans-43" d="M 4122 4306 
L 4122 3641 
Q 3803 3938 3442 4084 
Q 3081 4231 2675 4231 
Q 1875 4231 1450 3742 
Q 1025 3253 1025 2328 
Q 1025 1406 1450 917 
Q 1875 428 2675 428 
Q 3081 428 3442 575 
Q 3803 722 4122 1019 
L 4122 359 
Q 3791 134 3420 21 
Q 3050 -91 2638 -91 
Q 1578 -91 968 557 
Q 359 1206 359 2328 
Q 359 3453 968 4101 
Q 1578 4750 2638 4750 
Q 3056 4750 3426 4639 
Q 3797 4528 4122 4306 
z
" transform="scale(0.015625)"/>
      <path id="DejaVuSans-29" d="M 513 4856 
L 1013 4856 
Q 1481 4119 1714 3412 
Q 1947 2706 1947 2009 
Q 1947 1309 1714 600 
Q 1481 -109 1013 -844 
L 513 -844 
Q 928 -128 1133 580 
Q 1338 1288 1338 2009 
Q 1338 2731 1133 3434 
Q 928 4138 513 4856 
z
" transform="scale(0.015625)"/>
     </defs>
     <use xlink:href="#DejaVuSans-20"/>
     <use xlink:href="#DejaVuSans-45" x="31.787109"/>
     <use xlink:href="#DejaVuSans-6c" x="94.970703"/>
     <use xlink:href="#DejaVuSans-20" x="122.753906"/>
     <use xlink:href="#DejaVuSans-4e" x="154.541016"/>
     <use xlink:href="#DejaVuSans-69" x="229.345703"/>
     <use xlink:href="#DejaVuSans-f1" x="257.128906"/>
     <use xlink:href="#DejaVuSans-6f" x="320.507812"/>
     <use xlink:href="#DejaVuSans-20" x="381.689453"/>
     <use xlink:href="#DejaVuSans-28" x="413.476562"/>
     <use xlink:href="#DejaVuSans-2265" x="452.490234"/>
     <use xlink:href="#DejaVuSans-30" x="536.279297"/>
     <use xlink:href="#DejaVuSans-2e" x="599.902344"/>
     <use xlink:href="#DejaVuSans-35" x="631.689453"/>
     <use xlink:href="#DejaVuSans-b0" x="695.3125"/>
     <use xlink:href="#DejaVuSans-43" x="745.3125"/>
     <use xlink:href="#DejaVuSans-29" x="815.136719"/>
    </g>
   </g>
   <g id="text_24">
    <!--  La Niña (≤-0.5°C) -->
    <g style="fill: #2980b9; opacity: 0.9" transform="translate(695.310661 264.480714) scale(0.09 -0.09)">
     <defs>
      <path id="DejaVuSans-4c" d="M 628 4666 
L 1259 4666 
L 1259 531 
L 3531 531 
L 3531 0 
L 628 0 
L 628 4666 
z
" transform="scale(0.015625)"/>
      <path id="DejaVuSans-2264" d="M 4684 3175 
L 1684 2309 
L 4684 1453 
L 4684 897 
L 678 2047 
L 678 2578 
L 4684 3725 
L 4684 3175 
z
M 678 531 
L 4684 531 
L 4684 0 
L 678 0 
L 678 531 
z
" transform="scale(0.015625)"/>
     </defs>
     <use xlink:href="#DejaVuSans-20"/>
     <use xlink:href="#DejaVuSans-4c" x="31.787109"/>
     <use xlink:href="#DejaVuSans-61" x="87.5"/>
     <use xlink:href="#DejaVuSans-20" x="148.779297"/>
     <use xlink:href="#DejaVuSans-4e" x="180.566406"/>
     <use xlink:href="#DejaVuSans-69" x="255.371094"/>
     <use xlink:href="#DejaVuSans-f1" x="283.154297"/>
     <use xlink:href="#DejaVuSans-61" x="346.533203"/>
     <use xlink:href="#DejaVuSans-20" x="407.8125"/>
     <use xlink:href="#DejaVuSans-28" x="439.599609"/>
     <use xlink:href="#DejaVuSans-2264" x="478.613281"/>
     <use xlink:href="#DejaVuSans-2d" x="562.402344"/>
     <use xlink:href="#DejaVuSans-30" x="598.486328"/>
     <use xlink:href="#DejaVuSans-2e" x="662.109375"/>
     <use xlink:href="#DejaVuSans-35" x="693.896484"/>
     <use xlink:href="#DejaVuSans-b0" x="757.519531"/>
     <use xlink:href="#DejaVuSans-43" x="807.519531"/>
     <use xlink:href="#DejaVuSans-29" x="877.34375"/>
    </g>
   </g>
   <g id="text_25">
    <!-- ENSO Niño 4 — Sea Surface Temperature Anomaly by Month -->
    <g transform="translate(150.156141 17.311562) scale(0.13 -0.13)">
     <defs>
      <path id="DejaVuSans-Bold-45" d="M 588 4666 
L 3834 4666 
L 3834 3756 
L 1791 3756 
L 1791 2888 
L 3713 2888 
L 3713 1978 
L 1791 1978 
L 1791 909 
L 3903 909 
L 3903 0 
L 588 0 
L 588 4666 
z
" transform="scale(0.015625)"/>
      <path id="DejaVuSans-Bold-4f" d="M 2719 3878 
Q 2169 3878 1866 3472 
Q 1563 3066 1563 2328 
Q 1563 1594 1866 1187 
Q 2169 781 2719 781 
Q 3272 781 3575 1187 
Q 3878 1594 3878 2328 
Q 3878 3066 3575 3472 
Q 3272 3878 2719 3878 
z
M 2719 4750 
Q 3844 4750 4481 4106 
Q 5119 3463 5119 2328 
Q 5119 1197 4481 553 
Q 3844 -91 2719 -91 
Q 1597 -91 958 553 
Q 319 1197 319 2328 
Q 319 3463 958 4106 
Q 1597 4750 2719 4750 
z
" transform="scale(0.015625)"/>
      <path id="DejaVuSans-Bold-2014" d="M 344 2156 
L 6056 2156 
L 6056 1350 
L 344 1350 
L 344 2156 
z
" transform="scale(0.015625)"/>
      <path id="DejaVuSans-Bold-65" d="M 4031 1759 
L 4031 1441 
L 1416 1441 
Q 1456 1047 1700 850 
Q 1944 653 2381 653 
Q 2734 653 3104 758 
Q 3475 863 3866 1075 
L 3866 213 
Q 3469 63 3072 -14 
Q 2675 -91 2278 -91 
Q 1328 -91 801 392 
Q 275 875 275 1747 
Q 275 2603 792 3093 
Q 1309 3584 2216 3584 
Q 3041 3584 3536 3087 
Q 4031 2591 4031 1759 
z
M 2881 2131 
Q 2881 2450 2695 2645 
Q 2509 2841 2209 2841 
Q 1884 2841 1681 2658 
Q 1478 2475 1428 2131 
L 2881 2131 
z
" transform="scale(0.015625)"/>
      <path id="DejaVuSans-Bold-61" d="M 2106 1575 
Q 1756 1575 1579 1456 
Q 1403 1338 1403 1106 
Q 1403 894 1545 773 
Q 1688 653 1941 653 
Q 2256 653 2472 879 
Q 2688 1106 2688 1447 
L 2688 1575 
L 2106 1575 
z
M 3816 1997 
L 3816 0 
L 2688 0 
L 2688 519 
Q 2463 200 2181 54 
Q 1900 -91 1497 -91 
Q 953 -91 614 226 
Q 275 544 275 1050 
Q 275 1666 698 1953 
Q 1122 2241 2028 2241 
L 2688 2241 
L 2688 2328 
Q 2688 2594 2478 2717 
Q 2269 2841 1825 2841 
Q 1466 2841 1156 2769 
Q 847 2697 581 2553 
L 581 3406 
Q 941 3494 1303 3539 
Q 1666 3584 2028 3584 
Q 2975 3584 3395 3211 
Q 3816 2838 3816 1997 
z
" transform="scale(0.015625)"/>
      <path id="DejaVuSans-Bold-75" d="M 500 1363 
L 500 3500 
L 1625 3500 
L 1625 3150 
Q 1625 2866 1622 2436 
Q 1619 2006 1619 1863 
Q 1619 1441 1641 1255 
Q 1663 1069 1716 984 
Q 1784 875 1895 815 
Q 2006 756 2150 756 
Q 2500 756 2700 1025 
Q 2900 1294 2900 1772 
L 2900 3500 
L 4019 3500 
L 4019 0 
L 2900 0 
L 2900 506 
Q 2647 200 2364 54 
Q 2081 -91 1741 -91 
Q 1134 -91 817 281 
Q 500 653 500 1363 
z
" transform="scale(0.015625)"/>
      <path id="DejaVuSans-Bold-72" d="M 3138 2547 
Q 2991 2616 2845 2648 
Q 2700 2681 2553 2681 
Q 2122 2681 1889 2404 
Q 1656 2128 1656 1613 
L 1656 0 
L 538 0 
L 538 3500 
L 1656 3500 
L 1656 2925 
Q 1872 3269 2151 3426 
Q 2431 3584 2822 3584 
Q 2878 3584 2943 3579 
Q 3009 3575 3134 3559 
L 3138 2547 
z
" transform="scale(0.015625)"/>
      <path id="DejaVuSans-Bold-66" d="M 2841 4863 
L 2841 4128 
L 2222 4128 
Q 1984 4128 1890 4042 
Q 1797 3956 1797 3744 
L 1797 3500 
L 2753 3500 
L 2753 2700 
L 1797 2700 
L 1797 0 
L 678 0 
L 678 2700 
L 122 2700 
L 122 3500 
L 678 3500 
L 678 3744 
Q 678 4316 997 4589 
Q 1316 4863 1984 4863 
L 2841 4863 
z
" transform="scale(0.015625)"/>
      <path id="DejaVuSans-Bold-63" d="M 3366 3391 
L 3366 2478 
Q 3138 2634 2908 2709 
Q 2678 2784 2431 2784 
Q 1963 2784 1702 2511 
Q 1441 2238 1441 1747 
Q 1441 1256 1702 982 
Q 1963 709 2431 709 
Q 2694 709 2930 787 
Q 3166 866 3366 1019 
L 3366 103 
Q 3103 6 2833 -42 
Q 2563 -91 2291 -91 
Q 1344 -91 809 395 
Q 275 881 275 1747 
Q 275 2613 809 3098 
Q 1344 3584 2291 3584 
Q 2566 3584 2833 3536 
Q 3100 3488 3366 3391 
z
" transform="scale(0.015625)"/>
      <path id="DejaVuSans-Bold-6d" d="M 3781 2919 
Q 3994 3244 4286 3414 
Q 4578 3584 4928 3584 
Q 5531 3584 5847 3212 
Q 6163 2841 6163 2131 
L 6163 0 
L 5038 0 
L 5038 1825 
Q 5041 1866 5042 1909 
Q 5044 1953 5044 2034 
Q 5044 2406 4934 2573 
Q 4825 2741 4581 2741 
Q 4263 2741 4089 2478 
Q 3916 2216 3909 1719 
L 3909 0 
L 2784 0 
L 2784 1825 
Q 2784 2406 2684 2573 
Q 2584 2741 2328 2741 
Q 2006 2741 1831 2477 
Q 1656 2213 1656 1722 
L 1656 0 
L 531 0 
L 531 3500 
L 1656 3500 
L 1656 2988 
Q 1863 3284 2130 3434 
Q 2397 3584 2719 3584 
Q 3081 3584 3359 3409 
Q 3638 3234 3781 2919 
z
" transform="scale(0.015625)"/>
      <path id="DejaVuSans-Bold-70" d="M 1656 506 
L 1656 -1331 
L 538 -1331 
L 538 3500 
L 1656 3500 
L 1656 2988 
Q 1888 3294 2169 3439 
Q 2450 3584 2816 3584 
Q 3463 3584 3878 3070 
Q 4294 2556 4294 1747 
Q 4294 938 3878 423 
Q 3463 -91 2816 -91 
Q 2450 -91 2169 54 
Q 1888 200 1656 506 
z
M 2400 2772 
Q 2041 2772 1848 2508 
Q 1656 2244 1656 1747 
Q 1656 1250 1848 986 
Q 2041 722 2400 722 
Q 2759 722 2948 984 
Q 3138 1247 3138 1747 
Q 3138 2247 2948 2509 
Q 2759 2772 2400 2772 
z
" transform="scale(0.015625)"/>
      <path id="DejaVuSans-Bold-6c" d="M 538 4863 
L 1656 4863 
L 1656 0 
L 538 0 
L 538 4863 
z
" transform="scale(0.015625)"/>
      <path id="DejaVuSans-Bold-79" d="M 78 3500 
L 1197 3500 
L 2138 1125 
L 2938 3500 
L 4056 3500 
L 2584 -331 
Q 2363 -916 2067 -1148 
Q 1772 -1381 1288 -1381 
L 641 -1381 
L 641 -647 
L 991 -647 
Q 1275 -647 1404 -556 
Q 1534 -466 1606 -231 
L 1638 -134 
L 78 3500 
z
" transform="scale(0.015625)"/>
      <path id="DejaVuSans-Bold-62" d="M 2400 722 
Q 2759 722 2948 984 
Q 3138 1247 3138 1747 
Q 3138 2247 2948 2509 
Q 2759 2772 2400 2772 
Q 2041 2772 1848 2508 
Q 1656 2244 1656 1747 
Q 1656 1250 1848 986 
Q 2041 722 2400 722 
z
M 1656 2988 
Q 1888 3294 2169 3439 
Q 2450 3584 2816 3584 
Q 3463 3584 3878 3070 
Q 4294 2556 4294 1747 
Q 4294 938 3878 423 
Q 3463 -91 2816 -91 
Q 2450 -91 2169 54 
Q 1888 200 1656 506 
L 1656 0 
L 538 0 
L 538 4863 
L 1656 4863 
L 1656 2988 
z
" transform="scale(0.015625)"/>
     </defs>
     <use xlink:href="#DejaVuSans-Bold-45"/>
     <use xlink:href="#DejaVuSans-Bold-4e" x="68.310547"/>
     <use xlink:href="#DejaVuSans-Bold-53" x="152.001953"/>
     <use xlink:href="#DejaVuSans-Bold-4f" x="224.023438"/>
     <use xlink:href="#DejaVuSans-Bold-20" x="309.033203"/>
     <use xlink:href="#DejaVuSans-Bold-4e" x="343.847656"/>
     <use xlink:href="#DejaVuSans-Bold-69" x="427.539062"/>
     <use xlink:href="#DejaVuSans-Bold-f1" x="461.816406"/>
     <use xlink:href="#DejaVuSans-Bold-6f" x="533.007812"/>
     <use xlink:href="#DejaVuSans-Bold-20" x="601.708984"/>
     <use xlink:href="#DejaVuSans-Bold-34" x="636.523438"/>
     <use xlink:href="#DejaVuSans-Bold-20" x="706.103516"/>
     <use xlink:href="#DejaVuSans-Bold-2014" x="740.917969"/>
     <use xlink:href="#DejaVuSans-Bold-20" x="840.917969"/>
     <use xlink:href="#DejaVuSans-Bold-53" x="875.732422"/>
     <use xlink:href="#DejaVuSans-Bold-65" x="947.753906"/>
     <use xlink:href="#DejaVuSans-Bold-61" x="1015.576172"/>
     <use xlink:href="#DejaVuSans-Bold-20" x="1083.056641"/>
     <use xlink:href="#DejaVuSans-Bold-53" x="1117.871094"/>
     <use xlink:href="#DejaVuSans-Bold-75" x="1189.892578"/>
     <use xlink:href="#DejaVuSans-Bold-72" x="1261.083984"/>
     <use xlink:href="#DejaVuSans-Bold-66" x="1310.400391"/>
     <use xlink:href="#DejaVuSans-Bold-61" x="1353.90625"/>
     <use xlink:href="#DejaVuSans-Bold-63" x="1421.386719"/>
     <use xlink:href="#DejaVuSans-Bold-65" x="1480.664062"/>
     <use xlink:href="#DejaVuSans-Bold-20" x="1548.486328"/>
     <use xlink:href="#DejaVuSans-Bold-54" x="1583.300781"/>
     <use xlink:href="#DejaVuSans-Bold-65" x="1638.263672"/>
     <use xlink:href="#DejaVuSans-Bold-6d" x="1706.085938"/>
     <use xlink:href="#DejaVuSans-Bold-70" x="1810.285156"/>
     <use xlink:href="#DejaVuSans-Bold-65" x="1881.867188"/>
     <use xlink:href="#DejaVuSans-Bold-72" x="1949.689453"/>
     <use xlink:href="#DejaVuSans-Bold-61" x="1999.005859"/>
     <use xlink:href="#DejaVuSans-Bold-74" x="2066.486328"/>
     <use xlink:href="#DejaVuSans-Bold-75" x="2114.289062"/>
     <use xlink:href="#DejaVuSans-Bold-72" x="2185.480469"/>
     <use xlink:href="#DejaVuSans-Bold-65" x="2234.796875"/>
     <use xlink:href="#DejaVuSans-Bold-20" x="2302.619141"/>
     <use xlink:href="#DejaVuSans-Bold-41" x="2337.433594"/>
     <use xlink:href="#DejaVuSans-Bold-6e" x="2414.826172"/>
     <use xlink:href="#DejaVuSans-Bold-6f" x="2486.017578"/>
     <use xlink:href="#DejaVuSans-Bold-6d" x="2554.71875"/>
     <use xlink:href="#DejaVuSans-Bold-61" x="2658.917969"/>
     <use xlink:href="#DejaVuSans-Bold-6c" x="2726.398438"/>
     <use xlink:href="#DejaVuSans-Bold-79" x="2760.675781"/>
     <use xlink:href="#DejaVuSans-Bold-20" x="2825.861328"/>
     <use xlink:href="#DejaVuSans-Bold-62" x="2860.675781"/>
     <use xlink:href="#DejaVuSans-Bold-79" x="2932.257812"/>
     <use xlink:href="#DejaVuSans-Bold-20" x="2997.443359"/>
     <use xlink:href="#DejaVuSans-Bold-4d" x="3032.257812"/>
     <use xlink:href="#DejaVuSans-Bold-6f" x="3131.769531"/>
     <use xlink:href="#DejaVuSans-Bold-6e" x="3200.470703"/>
     <use xlink:href="#DejaVuSans-Bold-74" x="3271.662109"/>
     <use xlink:href="#DejaVuSans-Bold-68" x="3319.464844"/>
    </g>
   </g>
   <g id="legend_1">
    <g id="patch_8">
     <path d="M 64.575781 87.352812 
L 221.130781 87.352812 
Q 222.930781 87.352812 222.930781 85.552812 
L 222.930781 33.611562 
Q 222.930781 31.811562 221.130781 31.811562 
L 64.575781 31.811562 
Q 62.775781 31.811562 62.775781 33.611562 
L 62.775781 85.552812 
Q 62.775781 87.352812 64.575781 87.352812 
z
" style="fill: #ffffff; opacity: 0.95; stroke: #d9d9d9; stroke-linejoin: miter"/>
    </g>
    <g id="line2d_40">
     <path d="M 66.375781 39.100156 
L 76.275781 39.100156 
L 86.175781 39.100156 
" style="fill: none; stroke: #000000; stroke-width: 2.5; stroke-linecap: round"/>
    </g>
    <g id="text_26">
     <!-- 2026 (current) -->
     <g transform="translate(93.375781 42.250156) scale(0.09 -0.09)">
      <defs>
       <path id="DejaVuSans-36" d="M 2113 2584 
Q 1688 2584 1439 2293 
Q 1191 2003 1191 1497 
Q 1191 994 1439 701 
Q 1688 409 2113 409 
Q 2538 409 2786 701 
Q 3034 994 3034 1497 
Q 3034 2003 2786 2293 
Q 2538 2584 2113 2584 
z
M 3366 4563 
L 3366 3988 
Q 3128 4100 2886 4159 
Q 2644 4219 2406 4219 
Q 1781 4219 1451 3797 
Q 1122 3375 1075 2522 
Q 1259 2794 1537 2939 
Q 1816 3084 2150 3084 
Q 2853 3084 3261 2657 
Q 3669 2231 3669 1497 
Q 3669 778 3244 343 
Q 2819 -91 2113 -91 
Q 1303 -91 875 529 
Q 447 1150 447 2328 
Q 447 3434 972 4092 
Q 1497 4750 2381 4750 
Q 2619 4750 2861 4703 
Q 3103 4656 3366 4563 
z
" transform="scale(0.015625)"/>
      </defs>
      <use xlink:href="#DejaVuSans-32"/>
      <use xlink:href="#DejaVuSans-30" x="63.623047"/>
      <use xlink:href="#DejaVuSans-32" x="127.246094"/>
      <use xlink:href="#DejaVuSans-36" x="190.869141"/>
      <use xlink:href="#DejaVuSans-20" x="254.492188"/>
      <use xlink:href="#DejaVuSans-28" x="286.279297"/>
      <use xlink:href="#DejaVuSans-63" x="325.292969"/>
      <use xlink:href="#DejaVuSans-75" x="380.273438"/>
      <use xlink:href="#DejaVuSans-72" x="443.652344"/>
      <use xlink:href="#DejaVuSans-72" x="483.015625"/>
      <use xlink:href="#DejaVuSans-65" x="521.878906"/>
      <use xlink:href="#DejaVuSans-6e" x="583.402344"/>
      <use xlink:href="#DejaVuSans-74" x="646.78125"/>
      <use xlink:href="#DejaVuSans-29" x="685.990234"/>
     </g>
    </g>
    <g id="line2d_41">
     <path d="M 66.375781 52.310469 
L 76.275781 52.310469 
L 86.175781 52.310469 
" style="fill: none; stroke-dasharray: 5.55,2.4; stroke-dashoffset: 0; stroke: #440154; stroke-opacity: 0.8; stroke-width: 1.5"/>
    </g>
    <g id="text_27">
     <!-- 1997 -->
     <g transform="translate(93.375781 55.460469) scale(0.09 -0.09)">
      <defs>
       <path id="DejaVuSans-39" d="M 703 97 
L 703 672 
Q 941 559 1184 500 
Q 1428 441 1663 441 
Q 2288 441 2617 861 
Q 2947 1281 2994 2138 
Q 2813 1869 2534 1725 
Q 2256 1581 1919 1581 
Q 1219 1581 811 2004 
Q 403 2428 403 3163 
Q 403 3881 828 4315 
Q 1253 4750 1959 4750 
Q 2769 4750 3195 4129 
Q 3622 3509 3622 2328 
Q 3622 1225 3098 567 
Q 2575 -91 1691 -91 
Q 1453 -91 1209 -44 
Q 966 3 703 97 
z
M 1959 2075 
Q 2384 2075 2632 2365 
Q 2881 2656 2881 3163 
Q 2881 3666 2632 3958 
Q 2384 4250 1959 4250 
Q 1534 4250 1286 3958 
Q 1038 3666 1038 3163 
Q 1038 2656 1286 2365 
Q 1534 2075 1959 2075 
z
" transform="scale(0.015625)"/>
       <path id="DejaVuSans-37" d="M 525 4666 
L 3525 4666 
L 3525 4397 
L 1831 0 
L 1172 0 
L 2766 4134 
L 525 4134 
L 525 4666 
z
" transform="scale(0.015625)"/>
      </defs>
      <use xlink:href="#DejaVuSans-31"/>
      <use xlink:href="#DejaVuSans-39" x="63.623047"/>
      <use xlink:href="#DejaVuSans-39" x="127.246094"/>
      <use xlink:href="#DejaVuSans-37" x="190.869141"/>
     </g>
    </g>
    <g id="line2d_42">
     <path d="M 66.375781 65.520781 
L 76.275781 65.520781 
L 86.175781 65.520781 
" style="fill: none; stroke-dasharray: 5.55,2.4; stroke-dashoffset: 0; stroke: #443983; stroke-opacity: 0.8; stroke-width: 1.5"/>
    </g>
    <g id="text_28">
     <!-- 2002 -->
     <g transform="translate(93.375781 68.670781) scale(0.09 -0.09)">
      <use xlink:href="#DejaVuSans-32"/>
      <use xlink:href="#DejaVuSans-30" x="63.623047"/>
      <use xlink:href="#DejaVuSans-30" x="127.246094"/>
      <use xlink:href="#DejaVuSans-32" x="190.869141"/>
     </g>
    </g>
    <g id="line2d_43">
     <path d="M 66.375781 78.731094 
L 76.275781 78.731094 
L 86.175781 78.731094 
" style="fill: none; stroke-dasharray: 5.55,2.4; stroke-dashoffset: 0; stroke: #31688e; stroke-opacity: 0.8; stroke-width: 1.5"/>
    </g>
    <g id="text_29">
     <!-- 2006 -->
     <g transform="translate(93.375781 81.881094) scale(0.09 -0.09)">
      <use xlink:href="#DejaVuSans-32"/>
      <use xlink:href="#DejaVuSans-30" x="63.623047"/>
      <use xlink:href="#DejaVuSans-30" x="127.246094"/>
      <use xlink:href="#DejaVuSans-36" x="190.869141"/>
     </g>
    </g>
    <g id="line2d_44">
     <path d="M 169.425781 39.100156 
L 179.325781 39.100156 
L 189.225781 39.100156 
" style="fill: none; stroke-dasharray: 5.55,2.4; stroke-dashoffset: 0; stroke: #21918c; stroke-opacity: 0.8; stroke-width: 1.5"/>
    </g>
    <g id="text_30">
     <!-- 2009 -->
     <g transform="translate(196.425781 42.250156) scale(0.09 -0.09)">
      <use xlink:href="#DejaVuSans-32"/>
      <use xlink:href="#DejaVuSans-30" x="63.623047"/>
      <use xlink:href="#DejaVuSans-30" x="127.246094"/>
      <use xlink:href="#DejaVuSans-39" x="190.869141"/>
     </g>
    </g>
    <g id="line2d_45">
     <path d="M 169.425781 52.310469 
L 179.325781 52.310469 
L 189.225781 52.310469 
" style="fill: none; stroke-dasharray: 5.55,2.4; stroke-dashoffset: 0; stroke: #35b779; stroke-opacity: 0.8; stroke-width: 1.5"/>
    </g>
    <g id="text_31">
     <!-- 2014 -->
     <g transform="translate(196.425781 55.460469) scale(0.09 -0.09)">
      <defs>
       <path id="DejaVuSans-34" d="M 2419 4116 
L 825 1625 
L 2419 1625 
L 2419 4116 
z
M 2253 4666 
L 3047 4666 
L 3047 1625 
L 3713 1625 
L 3713 1100 
L 3047 1100 
L 3047 0 
L 2419 0 
L 2419 1100 
L 313 1100 
L 313 1709 
L 2253 4666 
z
" transform="scale(0.015625)"/>
      </defs>
      <use xlink:href="#DejaVuSans-32"/>
      <use xlink:href="#DejaVuSans-30" x="63.623047"/>
      <use xlink:href="#DejaVuSans-31" x="127.246094"/>
      <use xlink:href="#DejaVuSans-34" x="190.869141"/>
     </g>
    </g>
    <g id="line2d_46">
     <path d="M 169.425781 65.520781 
L 179.325781 65.520781 
L 189.225781 65.520781 
" style="fill: none; stroke-dasharray: 5.55,2.4; stroke-dashoffset: 0; stroke: #90d743; stroke-opacity: 0.8; stroke-width: 1.5"/>
    </g>
    <g id="text_32">
     <!-- 2018 -->
     <g transform="translate(196.425781 68.670781) scale(0.09 -0.09)">
      <defs>
       <path id="DejaVuSans-38" d="M 2034 2216 
Q 1584 2216 1326 1975 
Q 1069 1734 1069 1313 
Q 1069 891 1326 650 
Q 1584 409 2034 409 
Q 2484 409 2743 651 
Q 3003 894 3003 1313 
Q 3003 1734 2745 1975 
Q 2488 2216 2034 2216 
z
M 1403 2484 
Q 997 2584 770 2862 
Q 544 3141 544 3541 
Q 544 4100 942 4425 
Q 1341 4750 2034 4750 
Q 2731 4750 3128 4425 
Q 3525 4100 3525 3541 
Q 3525 3141 3298 2862 
Q 3072 2584 2669 2484 
Q 3125 2378 3379 2068 
Q 3634 1759 3634 1313 
Q 3634 634 3220 271 
Q 2806 -91 2034 -91 
Q 1263 -91 848 271 
Q 434 634 434 1313 
Q 434 1759 690 2068 
Q 947 2378 1403 2484 
z
M 1172 3481 
Q 1172 3119 1398 2916 
Q 1625 2713 2034 2713 
Q 2441 2713 2670 2916 
Q 2900 3119 2900 3481 
Q 2900 3844 2670 4047 
Q 2441 4250 2034 4250 
Q 1625 4250 1398 4047 
Q 1172 3844 1172 3481 
z
" transform="scale(0.015625)"/>
      </defs>
      <use xlink:href="#DejaVuSans-32"/>
      <use xlink:href="#DejaVuSans-30" x="63.623047"/>
      <use xlink:href="#DejaVuSans-31" x="127.246094"/>
      <use xlink:href="#DejaVuSans-38" x="190.869141"/>
     </g>
    </g>
    <g id="line2d_47">
     <path d="M 169.425781 78.731094 
L 179.325781 78.731094 
L 189.225781 78.731094 
" style="fill: none; stroke-dasharray: 5.55,2.4; stroke-dashoffset: 0; stroke: #fde725; stroke-opacity: 0.8; stroke-width: 1.5"/>
    </g>
    <g id="text_33">
     <!-- 2023 -->
     <g transform="translate(196.425781 81.881094) scale(0.09 -0.09)">
      <defs>
       <path id="DejaVuSans-33" d="M 2597 2516 
Q 3050 2419 3304 2112 
Q 3559 1806 3559 1356 
Q 3559 666 3084 287 
Q 2609 -91 1734 -91 
Q 1441 -91 1130 -33 
Q 819 25 488 141 
L 488 750 
Q 750 597 1062 519 
Q 1375 441 1716 441 
Q 2309 441 2620 675 
Q 2931 909 2931 1356 
Q 2931 1769 2642 2001 
Q 2353 2234 1838 2234 
L 1294 2234 
L 1294 2753 
L 1863 2753 
Q 2328 2753 2575 2939 
Q 2822 3125 2822 3475 
Q 2822 3834 2567 4026 
Q 2313 4219 1838 4219 
Q 1578 4219 1281 4162 
Q 984 4106 628 3988 
L 628 4550 
Q 988 4650 1302 4700 
Q 1616 4750 1894 4750 
Q 2613 4750 3031 4423 
Q 3450 4097 3450 3541 
Q 3450 3153 3228 2886 
Q 3006 2619 2597 2516 
z
" transform="scale(0.015625)"/>
      </defs>
      <use xlink:href="#DejaVuSans-32"/>
      <use xlink:href="#DejaVuSans-30" x="63.623047"/>
      <use xlink:href="#DejaVuSans-32" x="127.246094"/>
      <use xlink:href="#DejaVuSans-33" x="190.869141"/>
     </g>
    </g>
   </g>
  </g>
  <g id="text_34">
   <!-- Created by Aura Commodities - 2026 -->
   <g style="fill: #64748b" transform="translate(284.382344 405.471562) scale(0.09 -0.09)">
    <defs>
     <path id="DejaVuSans-Oblique-43" d="M 4447 4306 
L 4319 3641 
Q 4019 3944 3683 4091 
Q 3347 4238 2956 4238 
Q 2422 4238 2017 3981 
Q 1613 3725 1319 3200 
Q 1131 2863 1032 2486 
Q 934 2109 934 1728 
Q 934 1091 1264 756 
Q 1594 422 2222 422 
Q 2656 422 3056 561 
Q 3456 700 3834 978 
L 3688 231 
Q 3316 72 2936 -9 
Q 2556 -91 2175 -91 
Q 1278 -91 773 396 
Q 269 884 269 1753 
Q 269 2309 461 2846 
Q 653 3384 1013 3828 
Q 1394 4300 1883 4525 
Q 2372 4750 3022 4750 
Q 3422 4750 3780 4639 
Q 4138 4528 4447 4306 
z
" transform="scale(0.015625)"/>
     <path id="DejaVuSans-Oblique-72" d="M 2853 2969 
Q 2766 3016 2653 3041 
Q 2541 3066 2413 3066 
Q 1953 3066 1609 2717 
Q 1266 2369 1153 1784 
L 800 0 
L 225 0 
L 909 3500 
L 1484 3500 
L 1375 2956 
Q 1603 3259 1920 3421 
Q 2238 3584 2597 3584 
Q 2691 3584 2781 3573 
Q 2872 3563 2963 3538 
L 2853 2969 
z
" transform="scale(0.015625)"/>
     <path id="DejaVuSans-Oblique-65" d="M 3078 2063 
Q 3088 2113 3092 2166 
Q 3097 2219 3097 2272 
Q 3097 2653 2873 2875 
Q 2650 3097 2266 3097 
Q 1838 3097 1509 2826 
Q 1181 2556 1013 2059 
L 3078 2063 
z
M 3578 1613 
L 903 1613 
Q 884 1494 878 1425 
Q 872 1356 872 1306 
Q 872 872 1139 634 
Q 1406 397 1894 397 
Q 2269 397 2603 481 
Q 2938 566 3225 728 
L 3116 159 
Q 2806 34 2476 -28 
Q 2147 -91 1806 -91 
Q 1078 -91 686 257 
Q 294 606 294 1247 
Q 294 1794 489 2264 
Q 684 2734 1063 3103 
Q 1306 3334 1642 3459 
Q 1978 3584 2356 3584 
Q 2950 3584 3301 3228 
Q 3653 2872 3653 2272 
Q 3653 2128 3634 1964 
Q 3616 1800 3578 1613 
z
" transform="scale(0.015625)"/>
     <path id="DejaVuSans-Oblique-61" d="M 3438 1997 
L 3047 0 
L 2472 0 
L 2578 531 
Q 2325 219 2001 64 
Q 1678 -91 1281 -91 
Q 834 -91 548 182 
Q 263 456 263 884 
Q 263 1497 752 1853 
Q 1241 2209 2100 2209 
L 2900 2209 
L 2931 2363 
Q 2938 2388 2941 2417 
Q 2944 2447 2944 2509 
Q 2944 2788 2717 2942 
Q 2491 3097 2081 3097 
Q 1800 3097 1504 3025 
Q 1209 2953 897 2809 
L 997 3341 
Q 1322 3463 1633 3523 
Q 1944 3584 2234 3584 
Q 2853 3584 3176 3315 
Q 3500 3047 3500 2534 
Q 3500 2431 3484 2292 
Q 3469 2153 3438 1997 
z
M 2816 1759 
L 2241 1759 
Q 1534 1759 1195 1570 
Q 856 1381 856 984 
Q 856 709 1029 553 
Q 1203 397 1509 397 
Q 1978 397 2328 733 
Q 2678 1069 2791 1631 
L 2816 1759 
z
" transform="scale(0.015625)"/>
     <path id="DejaVuSans-Oblique-74" d="M 2706 3500 
L 2619 3053 
L 1472 3053 
L 1100 1153 
Q 1081 1047 1072 975 
Q 1063 903 1063 863 
Q 1063 663 1183 572 
Q 1303 481 1569 481 
L 2150 481 
L 2053 0 
L 1503 0 
Q 991 0 739 200 
Q 488 400 488 806 
Q 488 878 497 964 
Q 506 1050 525 1153 
L 897 3053 
L 409 3053 
L 500 3500 
L 978 3500 
L 1172 4494 
L 1747 4494 
L 1556 3500 
L 2706 3500 
z
" transform="scale(0.015625)"/>
     <path id="DejaVuSans-Oblique-64" d="M 2675 525 
Q 2444 222 2128 65 
Q 1813 -91 1428 -91 
Q 903 -91 598 267 
Q 294 625 294 1247 
Q 294 1766 478 2236 
Q 663 2706 1013 3078 
Q 1244 3325 1534 3454 
Q 1825 3584 2144 3584 
Q 2481 3584 2739 3421 
Q 2997 3259 3138 2956 
L 3513 4863 
L 4091 4863 
L 3144 0 
L 2566 0 
L 2675 525 
z
M 891 1350 
Q 891 897 1095 644 
Q 1300 391 1663 391 
Q 1931 391 2161 520 
Q 2391 650 2566 903 
Q 2750 1166 2856 1509 
Q 2963 1853 2963 2188 
Q 2963 2622 2758 2865 
Q 2553 3109 2194 3109 
Q 1922 3109 1687 2981 
Q 1453 2853 1288 2613 
Q 1106 2353 998 2009 
Q 891 1666 891 1350 
z
" transform="scale(0.015625)"/>
     <path id="DejaVuSans-Oblique-20" transform="scale(0.015625)"/>
     <path id="DejaVuSans-Oblique-62" d="M 3169 2138 
Q 3169 2591 2961 2847 
Q 2753 3103 2388 3103 
Q 2122 3103 1889 2973 
Q 1656 2844 1484 2597 
Q 1303 2338 1198 1995 
Q 1094 1653 1094 1313 
Q 1094 881 1298 636 
Q 1503 391 1863 391 
Q 2134 391 2365 517 
Q 2597 644 2772 891 
Q 2950 1147 3059 1487 
Q 3169 1828 3169 2138 
z
M 1381 2969 
Q 1594 3256 1914 3420 
Q 2234 3584 2584 3584 
Q 3122 3584 3439 3221 
Q 3756 2859 3756 2241 
Q 3756 1734 3570 1259 
Q 3384 784 3041 416 
Q 2816 172 2522 40 
Q 2228 -91 1906 -91 
Q 1566 -91 1316 65 
Q 1066 222 909 531 
L 806 0 
L 231 0 
L 1178 4863 
L 1753 4863 
L 1381 2969 
z
" transform="scale(0.015625)"/>
     <path id="DejaVuSans-Oblique-79" d="M 1588 -325 
Q 1188 -997 936 -1164 
Q 684 -1331 294 -1331 
L -159 -1331 
L -63 -850 
L 269 -850 
Q 509 -850 678 -719 
Q 847 -588 1056 -206 
L 1234 128 
L 459 3500 
L 1069 3500 
L 1650 819 
L 3256 3500 
L 3859 3500 
L 1588 -325 
z
" transform="scale(0.015625)"/>
     <path id="DejaVuSans-Oblique-41" d="M 2356 4666 
L 3072 4666 
L 3938 0 
L 3278 0 
L 3084 1197 
L 984 1197 
L 325 0 
L -341 0 
L 2356 4666 
z
M 2584 4044 
L 1275 1722 
L 2988 1722 
L 2584 4044 
z
" transform="scale(0.015625)"/>
     <path id="DejaVuSans-Oblique-75" d="M 428 1388 
L 838 3500 
L 1416 3500 
L 1006 1409 
Q 975 1256 961 1147 
Q 947 1038 947 966 
Q 947 700 1109 554 
Q 1272 409 1569 409 
Q 2031 409 2368 721 
Q 2706 1034 2809 1563 
L 3194 3500 
L 3769 3500 
L 3091 0 
L 2516 0 
L 2631 550 
Q 2388 244 2052 76 
Q 1716 -91 1338 -91 
Q 878 -91 622 161 
Q 366 413 366 863 
Q 366 956 381 1097 
Q 397 1238 428 1388 
z
" transform="scale(0.015625)"/>
     <path id="DejaVuSans-Oblique-6f" d="M 1625 -91 
Q 1009 -91 651 289 
Q 294 669 294 1325 
Q 294 1706 417 2101 
Q 541 2497 738 2766 
Q 1047 3184 1428 3384 
Q 1809 3584 2291 3584 
Q 2888 3584 3255 3212 
Q 3622 2841 3622 2241 
Q 3622 1825 3500 1412 
Q 3378 1000 3181 728 
Q 2875 309 2494 109 
Q 2113 -91 1625 -91 
z
M 891 1344 
Q 891 869 1089 633 
Q 1288 397 1691 397 
Q 2269 397 2648 901 
Q 3028 1406 3028 2181 
Q 3028 2634 2825 2865 
Q 2622 3097 2228 3097 
Q 1903 3097 1650 2945 
Q 1397 2794 1197 2484 
Q 1050 2253 970 1956 
Q 891 1659 891 1344 
z
" transform="scale(0.015625)"/>
     <path id="DejaVuSans-Oblique-6d" d="M 5747 2113 
L 5338 0 
L 4763 0 
L 5166 2094 
Q 5191 2228 5203 2325 
Q 5216 2422 5216 2491 
Q 5216 2772 5059 2928 
Q 4903 3084 4622 3084 
Q 4203 3084 3875 2770 
Q 3547 2456 3450 1953 
L 3066 0 
L 2491 0 
L 2900 2094 
Q 2925 2209 2937 2307 
Q 2950 2406 2950 2484 
Q 2950 2769 2794 2926 
Q 2638 3084 2363 3084 
Q 1938 3084 1609 2770 
Q 1281 2456 1184 1953 
L 800 0 
L 225 0 
L 909 3500 
L 1484 3500 
L 1375 2956 
Q 1609 3263 1923 3423 
Q 2238 3584 2597 3584 
Q 2978 3584 3223 3384 
Q 3469 3184 3519 2828 
Q 3781 3197 4126 3390 
Q 4472 3584 4856 3584 
Q 5306 3584 5551 3325 
Q 5797 3066 5797 2591 
Q 5797 2488 5784 2364 
Q 5772 2241 5747 2113 
z
" transform="scale(0.015625)"/>
     <path id="DejaVuSans-Oblique-69" d="M 1172 4863 
L 1747 4863 
L 1606 4134 
L 1031 4134 
L 1172 4863 
z
M 909 3500 
L 1484 3500 
L 800 0 
L 225 0 
L 909 3500 
z
" transform="scale(0.015625)"/>
     <path id="DejaVuSans-Oblique-73" d="M 3200 3397 
L 3091 2853 
Q 2863 2978 2609 3040 
Q 2356 3103 2088 3103 
Q 1634 3103 1373 2948 
Q 1113 2794 1113 2528 
Q 1113 2219 1719 2053 
Q 1766 2041 1788 2034 
L 1972 1978 
Q 2547 1819 2739 1644 
Q 2931 1469 2931 1166 
Q 2931 609 2489 259 
Q 2047 -91 1331 -91 
Q 1053 -91 747 -37 
Q 441 16 72 128 
L 184 722 
Q 500 559 806 475 
Q 1113 391 1394 391 
Q 1816 391 2080 572 
Q 2344 753 2344 1031 
Q 2344 1331 1650 1516 
L 1591 1531 
L 1394 1581 
Q 956 1697 753 1886 
Q 550 2075 550 2369 
Q 550 2928 970 3256 
Q 1391 3584 2113 3584 
Q 2397 3584 2667 3537 
Q 2938 3491 3200 3397 
z
" transform="scale(0.015625)"/>
     <path id="DejaVuSans-Oblique-2d" d="M 391 2009 
L 2075 2009 
L 1978 1497 
L 288 1497 
L 391 2009 
z
" transform="scale(0.015625)"/>
     <path id="DejaVuSans-Oblique-32" d="M 2950 2253 
L 934 525 
L 3163 525 
L 3053 0 
L 25 0 
L 128 531 
L 2234 2338 
Q 2656 2703 2832 2979 
Q 3009 3256 3009 3547 
Q 3009 3850 2796 4040 
Q 2584 4231 2241 4231 
Q 1944 4231 1581 4125 
Q 1219 4019 806 3816 
L 922 4441 
Q 1309 4594 1662 4672 
Q 2016 4750 2316 4750 
Q 2928 4750 3301 4425 
Q 3675 4100 3675 3572 
Q 3675 3216 3497 2892 
Q 3319 2569 2950 2253 
z
" transform="scale(0.015625)"/>
     <path id="DejaVuSans-Oblique-30" d="M 2444 4750 
Q 3078 4750 3414 4328 
Q 3750 3906 3750 3116 
Q 3750 2516 3592 1923 
Q 3434 1331 3150 863 
Q 2859 394 2467 151 
Q 2075 -91 1600 -91 
Q 988 -91 653 334 
Q 319 759 319 1544 
Q 319 2138 480 2733 
Q 641 3328 928 3794 
Q 1216 4263 1602 4506 
Q 1988 4750 2444 4750 
z
M 2406 4250 
Q 2169 4250 1955 4123 
Q 1741 3997 1569 3750 
Q 1281 3338 1111 2720 
Q 941 2103 941 1453 
Q 941 938 1123 673 
Q 1306 409 1663 409 
Q 1913 409 2125 536 
Q 2338 663 2509 909 
Q 2794 1319 2961 1936 
Q 3128 2553 3128 3206 
Q 3128 3722 2945 3986 
Q 2763 4250 2406 4250 
z
" transform="scale(0.015625)"/>
     <path id="DejaVuSans-Oblique-36" d="M 2938 1728 
Q 2938 2125 2734 2354 
Q 2531 2584 2181 2584 
Q 1697 2584 1367 2211 
Q 1038 1838 1038 1288 
Q 1038 875 1239 642 
Q 1441 409 1797 409 
Q 2284 409 2611 792 
Q 2938 1175 2938 1728 
z
M 3788 4556 
L 3681 3981 
Q 3500 4100 3265 4162 
Q 3031 4225 2766 4225 
Q 2119 4225 1726 3819 
Q 1334 3413 1141 2547 
Q 1369 2813 1670 2948 
Q 1972 3084 2322 3084 
Q 2894 3084 3233 2754 
Q 3572 2425 3572 1869 
Q 3572 1413 3405 1020 
Q 3238 628 2919 331 
Q 2700 128 2409 18 
Q 2119 -91 1791 -91 
Q 1147 -91 775 318 
Q 403 728 403 1441 
Q 403 2103 573 2717 
Q 744 3331 1050 3781 
Q 1372 4256 1830 4503 
Q 2288 4750 2841 4750 
Q 3084 4750 3321 4701 
Q 3559 4653 3788 4556 
z
" transform="scale(0.015625)"/>
    </defs>
    <use xlink:href="#DejaVuSans-Oblique-43"/>
    <use xlink:href="#DejaVuSans-Oblique-72" x="69.824219"/>
    <use xlink:href="#DejaVuSans-Oblique-65" x="110.9375"/>
    <use xlink:href="#DejaVuSans-Oblique-61" x="172.460938"/>
    <use xlink:href="#DejaVuSans-Oblique-74" x="233.740234"/>
    <use xlink:href="#DejaVuSans-Oblique-65" x="272.949219"/>
    <use xlink:href="#DejaVuSans-Oblique-64" x="334.472656"/>
    <use xlink:href="#DejaVuSans-Oblique-20" x="397.949219"/>
    <use xlink:href="#DejaVuSans-Oblique-62" x="429.736328"/>
    <use xlink:href="#DejaVuSans-Oblique-79" x="493.212891"/>
    <use xlink:href="#DejaVuSans-Oblique-20" x="552.392578"/>
    <use xlink:href="#DejaVuSans-Oblique-41" x="584.179688"/>
    <use xlink:href="#DejaVuSans-Oblique-75" x="652.587891"/>
    <use xlink:href="#DejaVuSans-Oblique-72" x="715.966797"/>
    <use xlink:href="#DejaVuSans-Oblique-61" x="757.080078"/>
    <use xlink:href="#DejaVuSans-Oblique-20" x="818.359375"/>
    <use xlink:href="#DejaVuSans-Oblique-43" x="850.146484"/>
    <use xlink:href="#DejaVuSans-Oblique-6f" x="919.970703"/>
    <use xlink:href="#DejaVuSans-Oblique-6d" x="981.152344"/>
    <use xlink:href="#DejaVuSans-Oblique-6d" x="1078.564453"/>
    <use xlink:href="#DejaVuSans-Oblique-6f" x="1175.976562"/>
    <use xlink:href="#DejaVuSans-Oblique-64" x="1237.158203"/>
    <use xlink:href="#DejaVuSans-Oblique-69" x="1300.634766"/>
    <use xlink:href="#DejaVuSans-Oblique-74" x="1328.417969"/>
    <use xlink:href="#DejaVuSans-Oblique-69" x="1367.626953"/>
    <use xlink:href="#DejaVuSans-Oblique-65" x="1395.410156"/>
    <use xlink:href="#DejaVuSans-Oblique-73" x="1456.933594"/>
    <use xlink:href="#DejaVuSans-Oblique-20" x="1509.033203"/>
    <use xlink:href="#DejaVuSans-Oblique-2d" x="1540.820312"/>
    <use xlink:href="#DejaVuSans-Oblique-20" x="1576.904297"/>
    <use xlink:href="#DejaVuSans-Oblique-32" x="1608.691406"/>
    <use xlink:href="#DejaVuSans-Oblique-30" x="1672.314453"/>
    <use xlink:href="#DejaVuSans-Oblique-32" x="1735.9375"/>
    <use xlink:href="#DejaVuSans-Oblique-36" x="1799.560547"/>
   </g>
  </g>
 </g>
 <defs>
  <clipPath id="p82bc52079f">
   <rect x="58.275781" y="27.311562" width="624.544" height="328.56"/>
  </clipPath>
 </defs>
</svg>
